<svg width="184" height="32" viewBox="0 0 184 32" fill="none" xmlns="http://www.w3.org/2000/svg">
<path d="M67.2395 18.4891C67.2395 19.7628 67.1967 21.079 67.1112 22.3528C67.0257 23.6265 66.9402 24.9427 66.812 26.2165L59.8009 26.5561C60.0146 24.9852 60.1856 23.4142 60.3567 21.8433C60.5285 20.2639 60.6141 18.6765 60.6131 17.088V16.5785C60.6131 16.3237 60.5704 16.0265 60.5704 15.7293C60.5277 15.4321 60.5276 15.0924 60.4849 14.7528C60.4525 14.4375 60.3953 14.1252 60.3139 13.8187C60.25 13.5848 60.1641 13.3573 60.0574 13.1394C60.0304 13.0692 59.9839 13.008 59.9234 12.9629C59.8629 12.9179 59.7908 12.8907 59.7154 12.8846C59.5707 12.8865 59.4278 12.9176 59.2955 12.976C59.1633 13.0344 59.0443 13.1188 58.9459 13.2243C58.7671 13.4819 58.6367 13.7696 58.5611 14.0734C58.4834 14.4093 58.4263 14.7496 58.3901 15.0924C58.3901 15.4321 58.3474 15.7293 58.3474 15.9416C58.3403 16.3242 58.3545 16.7069 58.3901 17.088C58.3901 17.4701 58.4329 17.8522 58.4329 18.2343C58.4329 19.6355 58.3901 21.0366 58.3474 22.4377L58.0909 26.641L51.6356 26.8958C51.8493 25.3248 52.0203 23.7539 52.1913 22.1829C52.362 20.6177 52.4476 19.0445 52.4478 17.4701V16.9181C52.4478 16.6634 52.4051 16.3662 52.4051 16.0265C52.3623 15.6868 52.3623 15.3472 52.3196 15.0075C52.287 14.6782 52.2299 14.3518 52.1486 14.031C52.0836 13.7837 51.9978 13.5422 51.8921 13.3092C51.8628 13.2286 51.8111 13.1579 51.743 13.1053C51.6749 13.0527 51.5932 13.0204 51.5073 13.012C51.4012 13.0091 51.2958 13.0305 51.1994 13.0747C51.103 13.1189 51.0182 13.1846 50.9516 13.2667C50.7741 13.462 50.6427 13.6941 50.5668 13.9461C50.4707 14.2513 50.3992 14.5636 50.3531 14.8801C50.3103 15.2198 50.2676 15.5595 50.2248 15.8567C50.1912 16.1527 50.1769 16.4505 50.1821 16.7483V17.3852L49.8828 27.2779H43C43.1283 25.7494 43.2993 24.2209 43.4275 22.6924C43.5985 21.1639 43.7268 19.6355 43.8123 18.107C43.9405 16.5785 44.026 15.05 44.1115 13.479C44.197 11.9505 44.2398 10.422 44.2398 8.85108L50.7378 8.59633L50.6951 10.1673C50.9088 9.91253 51.1226 9.65778 51.3791 9.40304C51.6187 9.14226 51.8918 8.91387 52.1913 8.72371C52.4713 8.52233 52.7723 8.35151 53.0891 8.21421C53.4031 8.09627 53.7367 8.03864 54.0723 8.04438C54.4727 8.04845 54.8725 8.07681 55.2694 8.12929C55.6112 8.19752 55.942 8.3118 56.2526 8.46896C56.5567 8.63593 56.8195 8.86797 57.0221 9.14829C57.2661 9.46859 57.454 9.82743 57.5779 10.2097L58.4756 9.31812C59.0549 8.79732 59.7401 8.40636 60.4849 8.17175C60.9005 8.04726 61.3335 7.98992 61.7674 8.00192C62.5538 7.97946 63.3332 8.15471 64.0332 8.51141C64.6402 8.84683 65.1656 9.31066 65.5722 9.87008C66.0004 10.4508 66.3323 11.0959 66.5555 11.7807C66.7917 12.5146 66.9634 13.2675 67.0685 14.031C67.2032 14.8024 67.2747 15.5833 67.2822 16.3662C67.2395 17.1304 67.2395 17.8522 67.2395 18.4891Z" fill="white"/>
<path d="M85.0661 16.7054C85.073 17.5012 85.0158 18.2963 84.8951 19.0831C83.3561 19.168 81.7743 19.3378 80.2353 19.5501C78.6963 19.7624 77.1572 19.9747 75.6182 20.2294C75.8353 20.8451 76.2201 21.3889 76.7297 21.8004C77.2455 22.1905 77.877 22.3996 78.5253 22.3948C78.9326 22.3826 79.3359 22.311 79.7223 22.1825C80.1637 22.0496 80.5928 21.8791 81.0048 21.673C81.4317 21.472 81.8457 21.2452 82.2445 20.9937C82.6293 20.7389 82.9713 20.5266 83.2706 20.3568L82.6293 26.5132C82.2761 26.7888 81.888 27.0172 81.475 27.1926C81.0475 27.3624 80.62 27.5322 80.1925 27.6596C79.7461 27.7892 79.2879 27.8745 78.8245 27.9144C78.3543 27.9568 77.9268 27.9993 77.4992 27.9993C76.6573 28.0069 75.8198 27.8778 75.0197 27.6171C74.3053 27.3723 73.629 27.0293 73.0105 26.5982C72.4012 26.1629 71.867 25.6323 71.4287 25.0272C70.9695 24.4225 70.5822 23.7671 70.2744 23.0741C69.9763 22.3469 69.7473 21.5935 69.5904 20.8239C69.4345 20.0411 69.3629 19.244 69.3767 18.4462C69.3823 17.6069 69.4538 16.7694 69.5904 15.9412C69.7474 15.1163 69.9763 14.3066 70.2744 13.5211C70.5884 12.756 70.99 12.0294 71.4714 11.3557C71.9365 10.696 72.4985 10.1092 73.1387 9.61491C73.7874 9.1015 74.5268 8.71273 75.319 8.46855C76.1704 8.1732 77.0677 8.02947 77.9695 8.04397C78.7237 8.04314 79.4735 8.1577 80.1925 8.38363C80.8475 8.57367 81.4578 8.89119 81.988 9.31771C82.5169 9.70872 82.9788 10.1818 83.3561 10.7188C83.7527 11.2662 84.0693 11.8666 84.2966 12.5021C84.5519 13.1606 84.7381 13.8436 84.8523 14.5401C84.987 15.2543 85.0585 15.9788 85.0661 16.7054ZM79.594 16.0261C79.5867 15.7694 79.5581 15.5138 79.5085 15.2618C79.4685 15.0076 79.3815 14.7629 79.252 14.5401C79.1189 14.3375 78.9609 14.152 78.7818 13.9881C78.5498 13.8485 78.2835 13.775 78.0123 13.7758C77.6603 13.7631 77.3142 13.8677 77.029 14.073C76.7459 14.2693 76.4999 14.5136 76.3022 14.7948C76.0811 15.0918 75.908 15.4213 75.7892 15.7713C75.661 16.111 75.5755 16.4507 75.49 16.7054L79.5513 16.3233V16.0261H79.594Z" fill="white"/>
<path d="M111.016 18.4891C111.016 19.7628 110.973 21.079 110.888 22.3528C110.802 23.6265 110.717 24.9427 110.588 26.2165L103.577 26.5561C103.791 24.9852 103.962 23.4142 104.133 21.8433C104.305 20.2639 104.39 18.6765 104.39 17.088V16.5785C104.39 16.3237 104.347 16.0265 104.347 15.7293C104.304 15.4321 104.304 15.0924 104.261 14.7528C104.229 14.4375 104.172 14.1252 104.09 13.8187C104.026 13.5848 103.94 13.3573 103.834 13.1394C103.807 13.0692 103.76 13.008 103.7 12.9629C103.639 12.9179 103.567 12.8907 103.492 12.8846C103.347 12.8865 103.204 12.9176 103.072 12.976C102.94 13.0344 102.821 13.1188 102.722 13.2243C102.543 13.4819 102.413 13.7696 102.338 14.0734C102.26 14.4093 102.203 14.7496 102.167 15.0924C102.167 15.4321 102.124 15.7293 102.124 15.9416C102.117 16.3242 102.131 16.7069 102.167 17.088C102.167 17.4701 102.209 17.8522 102.209 18.2343C102.209 19.6355 102.167 21.0366 102.124 22.4377L101.867 26.641L95.4119 26.8958C95.6257 25.3248 95.7967 23.7539 95.9677 22.1829C96.1384 20.6177 96.224 19.0445 96.2242 17.4701V16.9181C96.2242 16.6634 96.1815 16.3662 96.1815 16.0265C96.1387 15.6868 96.1387 15.3472 96.096 15.0075C96.0634 14.6782 96.0062 14.3518 95.925 14.031C95.86 13.7837 95.7742 13.5422 95.6684 13.3092C95.6391 13.2286 95.5874 13.1579 95.5193 13.1053C95.4513 13.0527 95.3695 13.0204 95.2837 13.012C95.1776 13.0091 95.0722 13.0305 94.9758 13.0747C94.8794 13.1189 94.7946 13.1846 94.7279 13.2667C94.5505 13.462 94.4191 13.6941 94.3432 13.9461C94.2471 14.2513 94.1756 14.5636 94.1294 14.8801C94.0867 15.2198 94.0439 15.5595 94.0012 15.8567C93.9675 16.1527 93.9533 16.4505 93.9584 16.7483V17.3852L93.6592 27.2779H86.7764C86.9046 25.7494 87.0756 24.2209 87.2039 22.6924C87.3749 21.1639 87.5031 19.6355 87.5886 18.107C87.7169 16.5785 87.8024 15.05 87.8879 13.479C87.9734 11.9505 88.0161 10.422 88.0161 8.85108L94.5142 8.59633L94.4714 10.1673C94.6852 9.91253 94.8989 9.65778 95.1554 9.40304C95.3951 9.14226 95.6682 8.91387 95.9677 8.72371C96.2476 8.52233 96.5486 8.35151 96.8655 8.21421C97.1794 8.09627 97.5131 8.03864 97.8487 8.04438C98.2491 8.04845 98.6488 8.07681 99.0457 8.12929C99.3875 8.19752 99.7183 8.3118 100.029 8.46896C100.333 8.63593 100.596 8.86797 100.798 9.14829C101.042 9.46859 101.23 9.82743 101.354 10.2097L102.252 9.31812C102.831 8.79733 103.516 8.40637 104.261 8.17175C104.677 8.04726 105.11 7.98992 105.544 8.00192C106.33 7.97946 107.11 8.15471 107.81 8.51141C108.417 8.84682 108.942 9.31065 109.349 9.87008C109.777 10.4508 110.109 11.0959 110.332 11.7807C110.568 12.5146 110.74 13.2675 110.845 14.031C110.98 14.8024 111.051 15.5833 111.059 16.3662C111.003 17.0724 110.989 17.7812 111.016 18.4891Z" fill="white"/>
<path d="M129.911 8.55469C129.484 11.7391 129.142 14.9234 128.843 18.0653C128.543 21.2072 128.287 24.3916 127.988 27.576L122.387 28.0005L122.644 25.9201C122.46 26.1361 122.244 26.3223 122.003 26.472C121.764 26.6328 121.506 26.7614 121.233 26.8542C120.955 26.9498 120.669 27.0208 120.378 27.0665C120.094 27.1018 119.809 27.116 119.523 27.1089C118.318 27.1 117.16 26.6459 116.274 25.8352C115.807 25.4338 115.391 24.9776 115.034 24.4765C114.664 23.9732 114.349 23.4323 114.094 22.8631C113.845 22.3049 113.658 21.7211 113.538 21.1223C113.406 20.5653 113.335 19.996 113.324 19.424C113.324 18.6173 113.324 17.7681 113.367 16.8765C113.41 15.9849 113.452 15.1357 113.538 14.2441C113.607 13.3755 113.721 12.511 113.88 11.6541C114.051 10.805 114.179 9.95581 114.393 9.19156C115.504 9.23402 116.616 9.27648 117.728 9.36139C118.839 9.40385 119.951 9.40385 121.062 9.40385C120.848 10.2106 120.635 10.9748 120.421 11.7815C120.207 12.5882 120.036 13.3525 119.865 14.1592C119.695 14.9588 119.567 15.7666 119.48 16.5793C119.379 17.3965 119.322 18.2186 119.309 19.0419C119.306 19.3114 119.321 19.5808 119.352 19.8486C119.374 20.2046 119.416 20.559 119.48 20.91C119.561 21.2188 119.676 21.5178 119.822 21.8016C119.891 21.9204 119.991 22.0186 120.112 22.0858C120.232 22.153 120.368 22.1869 120.506 22.1838C120.684 22.182 120.86 22.1433 121.022 22.0702C121.184 21.9971 121.328 21.8911 121.447 21.7592C121.751 21.4037 121.996 21.0024 122.174 20.5704C122.403 20.0048 122.589 19.4229 122.729 18.8296C122.9 18.1927 122.986 17.5134 123.114 16.7916L123.371 14.6262C123.413 13.9044 123.499 13.2251 123.499 12.5882C123.542 11.9513 123.542 11.3994 123.584 10.8899V9.19156C123.584 9.02173 123.542 8.8519 123.542 8.68206C124.14 8.68206 124.739 8.72452 125.294 8.72452H128.415C128.91 8.63538 129.409 8.57865 129.911 8.55469Z" fill="white"/>
<path d="M144.831 9.14885L144.318 14.8807C144.066 14.804 143.809 14.7472 143.548 14.7109C143.294 14.6756 143.036 14.6614 142.779 14.6684C142.157 14.6637 141.538 14.7496 140.941 14.9232C140.381 15.0734 139.858 15.3332 139.402 15.6874C138.946 16.0186 138.579 16.456 138.333 16.9612C138.062 17.5311 137.93 18.1567 137.948 18.7869C137.946 19.2343 138.018 19.679 138.162 20.1031C138.315 20.4517 138.532 20.7686 138.803 21.0371C139.093 21.3033 139.446 21.4931 139.829 21.5891C140.259 21.7135 140.706 21.7708 141.154 21.7589C141.498 21.7517 141.84 21.7234 142.18 21.674C142.542 21.5947 142.899 21.4955 143.249 21.3768C143.599 21.2535 143.941 21.1117 144.275 20.9522C144.593 20.8173 144.894 20.6463 145.173 20.4427L144.959 26.8115C144.589 26.9999 144.203 27.1562 143.805 27.2785C143.377 27.4059 142.993 27.5332 142.522 27.6606L141.24 27.9154C140.812 27.9578 140.385 28.0003 140 28.0003C138.78 28.0074 137.571 27.7616 136.452 27.2785C135.417 26.8165 134.487 26.1523 133.716 25.3254C132.931 24.4982 132.333 23.5138 131.963 22.4383C131.533 21.3275 131.315 20.1467 131.322 18.9567C131.309 17.5445 131.526 16.1396 131.963 14.7958C132.365 13.5669 133.003 12.4276 133.844 11.4416C134.681 10.4755 135.736 9.7191 136.922 9.23377C138.243 8.66569 139.673 8.3904 141.112 8.42706C141.757 8.42035 142.401 8.47724 143.035 8.5969C143.661 8.67665 144.269 8.86339 144.831 9.14885Z" fill="white"/>
<path d="M163.855 27.1503L157.015 27.49L156.972 21.7582H153.809L153.638 27.7023H147.524L148.037 8.63858L154.535 8.93579L154.108 18.6587H157.143L157.186 8.46875L163.428 8.63858L163.855 27.1503Z" fill="white"/>
<path d="M183.222 17.3008C183.23 18.1031 183.13 18.9029 182.923 19.6785C182.742 20.4305 182.469 21.1577 182.11 21.8438C181.757 22.5114 181.311 23.1261 180.785 23.6695C180.26 24.218 179.672 24.7026 179.032 25.1131C178.38 25.5175 177.675 25.8318 176.937 26.0472C176.159 26.2698 175.353 26.3842 174.543 26.3868C173.75 26.3953 172.959 26.2953 172.192 26.0896C171.459 25.8807 170.755 25.5812 170.097 25.198C169.45 24.8311 168.86 24.3735 168.345 23.8393C167.81 23.3193 167.362 22.7172 167.019 22.0561C166.647 21.4012 166.36 20.7021 166.164 19.9757C165.955 19.2151 165.854 18.429 165.865 17.6405C165.854 16.8659 165.955 16.0938 166.164 15.3477C166.338 14.6071 166.611 13.893 166.977 13.2248C167.329 12.5572 167.776 11.9426 168.302 11.3991C168.8 10.8396 169.376 10.3536 170.012 9.95554C170.644 9.54219 171.336 9.2272 172.064 9.02146C172.827 8.79571 173.619 8.6813 174.415 8.68179C175.652 8.6753 176.88 8.87626 178.049 9.27621C179.085 9.66178 180.031 10.2542 180.828 11.017C181.618 11.7988 182.23 12.7399 182.623 13.7768C183.037 14.9055 183.24 16.0997 183.222 17.3008ZM177.151 17.6405C177.17 16.8766 176.929 16.1288 176.467 15.5176C176.259 15.2261 175.98 14.9923 175.655 14.8382C175.311 14.6646 174.929 14.5771 174.543 14.5835C174.149 14.5844 173.758 14.6563 173.389 14.7958C173.064 14.948 172.773 15.1647 172.534 15.4326C172.285 15.7016 172.095 16.0199 171.978 16.3667C171.853 16.7356 171.795 17.1239 171.807 17.5131C171.801 17.9019 171.859 18.2891 171.978 18.6595C172.079 19.0297 172.254 19.3762 172.491 19.6785C172.708 19.9848 172.984 20.2447 173.304 20.4427C173.644 20.6302 174.026 20.7322 174.415 20.7399C174.815 20.7462 175.21 20.6589 175.569 20.4852C175.906 20.3321 176.2 20.0987 176.424 19.8058C176.675 19.5213 176.864 19.189 176.98 18.8293C177.097 18.4438 177.154 18.043 177.151 17.6405Z" fill="white"/>
<path d="M28.3773 3.31319C28.5172 3.12528 28.6186 2.91175 28.6757 2.6848C28.7328 2.45785 28.7445 2.22191 28.7101 1.99046C28.6757 1.75901 28.5958 1.53658 28.4751 1.33588C28.3544 1.13517 28.1952 0.960114 28.0065 0.820705C27.8179 0.681296 27.6036 0.580265 27.3757 0.523377C27.1479 0.46649 26.9111 0.454861 26.6787 0.489156C26.4464 0.52345 26.2231 0.602996 26.0216 0.723251C25.8202 0.843507 25.6444 1.00212 25.5045 1.19002C25.2912 1.52438 25.1856 1.9157 25.2018 2.31154C25.2181 2.70737 25.3555 3.0888 25.5955 3.40467L22.63 6.7277C20.1976 4.91459 17.2376 3.94204 14.1997 3.9578C11.322 3.96243 8.51253 4.83104 6.13788 6.45028L3.07974 2.94259C3.37285 2.6572 3.55292 2.27615 3.58696 1.86927C3.621 1.46238 3.50674 1.05689 3.26511 0.7271C3.12663 0.537307 2.95156 0.37693 2.75012 0.255354C2.54868 0.133779 2.32492 0.0534465 2.09194 0.0190566C1.85896 -0.0153333 1.62143 -0.00308931 1.39326 0.0550714C1.16508 0.113232 0.950846 0.216142 0.763078 0.35778C0.56376 0.488649 0.394398 0.659938 0.266066 0.860458C0.137734 1.06098 0.0533159 1.28621 0.0183264 1.52145C-0.0166632 1.75669 -0.00143347 1.99664 0.0630151 2.22561C0.127464 2.45459 0.239679 2.66744 0.392338 2.85026C0.633105 3.19504 0.991154 3.44119 1.40015 3.54313C1.80915 3.64507 2.24137 3.59588 2.61675 3.40467L5.11879 7.37401C3.57021 8.67768 2.32772 10.3041 1.47902 12.1383C0.630323 13.9726 0.196091 15.9701 0.206974 17.9898C0.210478 20.3206 0.79678 22.6138 1.91293 24.6623C3.02908 26.7108 4.63991 28.45 6.59991 29.7229C8.55992 30.9958 10.8074 31.7622 13.1392 31.9529C15.4711 32.1437 17.8139 31.7527 19.9561 30.8154C22.0983 29.8781 23.9724 28.4239 25.409 26.5842C26.8456 24.7446 27.7996 22.5774 28.1847 20.2784C28.5698 17.9794 28.374 15.621 27.6149 13.4163C26.8557 11.2116 25.5572 9.23004 23.8366 7.65057L26.3387 3.86377C26.8939 4.23309 27.8212 4.04843 28.3773 3.31064V3.31319ZM22.8192 18.1753C22.7266 18.7285 22.6339 19.191 22.5412 19.6522L21.9859 22.4217C21.8933 22.9748 21.2445 25.0065 20.6888 26.8527C19.1452 27.9139 17.3628 28.5797 15.4994 28.7912C16.0546 26.7603 16.9819 22.8833 17.2599 22.0523C17.538 20.9461 17.8152 19.8369 18.0014 18.637C17.9973 18.5077 18.0294 18.3798 18.0941 18.2677C18.0941 18.083 18.1868 17.8983 18.1868 17.6214C18.1771 17.3718 18.2084 17.1223 18.2794 16.8827V16.2368C18.3037 16.0769 18.2709 15.9135 18.1868 15.7752C18.0941 15.6829 18.0941 15.5905 18.0014 15.5905C17.8931 15.5878 17.7859 15.6116 17.689 15.6599C17.5922 15.7082 17.5088 15.7795 17.4461 15.8675C17.2696 16.0482 17.1421 16.2706 17.0754 16.5138C16.9827 16.7908 16.89 16.9755 16.7974 17.2525C16.7272 17.4605 16.6958 17.6795 16.7047 17.8988C16.6282 18.1688 16.5969 18.4496 16.612 18.7297C16.612 19.0067 16.5193 19.2829 16.5193 19.5607C16.3571 20.5564 16.1405 21.5426 15.8705 22.5148C15.6852 23.3458 14.6661 27.2228 14.2026 28.8843C12.7563 28.843 11.3351 28.4969 10.0327 27.8687C10.4961 26.2995 11.3299 23.2531 11.5152 22.3302C11.7933 21.2239 12.0705 20.1147 12.2567 18.9148C12.2526 18.7855 12.2847 18.6577 12.3494 18.5455C12.3494 18.3608 12.4421 18.1762 12.4421 17.8992C12.4271 17.6494 12.4585 17.399 12.5348 17.1606V16.5138C12.5493 16.3247 12.5175 16.1349 12.4421 15.9607C12.3494 15.8684 12.3494 15.776 12.2567 15.776C12.0713 15.776 11.9787 15.8684 11.7933 15.9607C11.6476 16.0956 11.5227 16.2511 11.4226 16.4223C11.3299 16.607 11.2372 16.884 11.1445 17.0687C11.0395 17.3021 10.9768 17.5521 10.9591 17.8073C10.9097 18.0261 10.8479 18.2419 10.7738 18.4536C10.752 18.6092 10.7211 18.7633 10.6811 18.9153L8.82785 27.2233C7.25465 26.2585 5.97365 24.8867 5.12135 23.2539C5.21403 23.0693 5.21403 22.8846 5.30672 22.7008L6.14086 19.3778C6.41892 18.2715 6.69611 17.1623 6.88233 16.0547C7.16038 14.9485 7.34576 13.8392 7.53112 12.7317L12.1645 12.547L11.9791 13.6533L12.5343 13.1002C12.7275 12.9164 12.946 12.761 13.1831 12.6385C13.3993 12.4615 13.6527 12.3353 13.9246 12.2692C14.1639 12.1932 14.4153 12.1619 14.6661 12.1769C14.9473 12.1618 15.2291 12.193 15.5002 12.2692C15.7783 12.3615 15.9636 12.3615 16.149 12.5462C16.3463 12.6504 16.5078 12.8113 16.6124 13.0078C16.7204 13.2481 16.8132 13.4948 16.8905 13.7465C17.1685 13.5618 17.3539 13.2848 17.6319 13.1002C17.8571 12.9137 18.1065 12.7584 18.3734 12.6385C18.6515 12.5462 18.9287 12.3615 19.2076 12.2692C20.0493 12.0816 20.9298 12.1791 21.7096 12.5462C22.0842 12.7807 22.401 13.0963 22.6364 13.4695C22.8599 13.9052 23.0161 14.3719 23.0998 14.854C23.1769 15.3734 23.2079 15.8984 23.1925 16.4232C22.9461 16.9752 22.8198 17.5729 22.8218 18.177L22.8192 18.1753Z" fill="white"/>
</svg>
