<svg width="148" height="24" viewBox="0 0 148 24" fill="none" xmlns="http://www.w3.org/2000/svg">
<path d="M25.4647 13.8992C25.4647 15.2393 25.4647 16.5811 25.3768 18.0092C25.2889 19.3492 25.1983 20.6911 25.1086 22.1191L17.7821 22.4765C17.9606 20.779 18.2288 19.1707 18.4077 17.4732C18.5862 15.8112 18.6757 14.1409 18.6759 12.4694V11.9335C18.6868 11.6331 18.6572 11.3326 18.588 11.0401C18.588 10.6826 18.5001 10.3252 18.5001 9.96774C18.4922 9.63289 18.4319 9.30134 18.3216 8.9851C18.247 8.74148 18.1575 8.50273 18.0534 8.27021C18.0201 8.19981 17.9701 8.13859 17.9079 8.09186C17.8456 8.04512 17.7728 8.01429 17.6959 8.00202C17.5422 7.98484 17.3867 8.00889 17.2454 8.07171C17.1041 8.13453 16.982 8.23385 16.8918 8.35946C16.6905 8.62802 16.5391 8.93065 16.4451 9.25286C16.3423 9.60174 16.2824 9.96183 16.2666 10.3252V13.631C16.2666 15.15 16.2666 16.5794 16.1787 18.0092C16.0907 19.4389 16.0002 20.9575 15.9105 22.3873L9.11989 22.6555C9.2984 20.958 9.56659 19.3497 9.65584 17.6517C9.83667 15.9899 9.9262 14.3195 9.92404 12.6479V12.112C9.9391 11.8115 9.90947 11.5104 9.8361 11.2186C9.8361 10.8611 9.74817 10.5037 9.74817 10.1462C9.66024 9.7888 9.66024 9.43136 9.56967 9.16361L9.30147 8.35946C9.2682 8.28906 9.21825 8.22784 9.15596 8.18111C9.09367 8.13438 9.02093 8.10353 8.94403 8.09127C8.82654 8.08798 8.70975 8.11026 8.60172 8.15657C8.49369 8.20288 8.39702 8.2721 8.31839 8.35946C8.14706 8.56788 8.02489 8.81223 7.96095 9.07435C7.87302 9.34255 7.78245 9.69999 7.69275 10.0574C7.61918 10.4099 7.58964 10.7701 7.60482 11.1298V12.738L7.24738 23.1919H0C0.178502 21.5836 0.268193 19.9753 0.446695 18.367C0.625198 16.7588 0.714888 15.1505 0.893391 13.5422L1.16158 8.71735C1.24952 7.10907 1.24952 5.50079 1.24952 3.89251L8.04009 3.62431V5.32184C8.25286 5.03215 8.49219 4.76294 8.75498 4.5177C9.01152 4.23199 9.31335 3.99046 9.64837 3.80281C9.96538 3.60549 10.2935 3.42655 10.631 3.26687C10.9799 3.1641 11.34 3.10416 11.7033 3.08836C12.1223 3.06986 12.542 3.09936 12.9542 3.1763C13.2991 3.24079 13.6311 3.36154 13.9368 3.53374C14.2265 3.74652 14.4957 3.98585 14.741 4.24863C15.0199 4.59354 15.2321 4.98748 15.3666 5.41022C15.6416 5.09048 15.9403 4.79184 16.26 4.51682C16.5489 4.22948 16.8803 3.98835 17.2426 3.80193C17.5832 3.61537 17.9427 3.46563 18.315 3.35524C18.7524 3.23992 19.2027 3.17995 19.6551 3.17674C20.4626 3.15274 21.2628 3.33732 21.9782 3.71268C22.6137 4.0641 23.1631 4.5525 23.5865 5.14246C24.0543 5.7511 24.3891 6.4512 24.5692 7.19744C24.8418 7.97777 25.0217 8.78748 25.1051 9.60986L25.3733 12.0223C25.4541 12.6443 25.4835 13.2719 25.4612 13.8988L25.4647 13.8992Z" fill="#AFD534"/>
<path d="M44.051 12.0231C44.036 12.8596 43.9764 13.6947 43.8725 14.5248C42.2556 14.615 40.6449 14.794 39.0477 15.0607C37.4394 15.3289 35.8311 15.5074 34.2228 15.7756C34.4266 16.4229 34.834 16.987 35.3844 17.3839C35.9132 17.8134 36.5802 18.0358 37.2609 18.0096C37.6824 17.9878 38.101 17.9281 38.5117 17.831L39.8518 17.2951C40.2973 17.1107 40.7176 16.8705 41.1026 16.5802C41.4866 16.3843 41.8465 16.1444 42.175 15.8653L41.457 22.3864C41.0905 22.6567 40.7019 22.8958 40.2954 23.1013C39.863 23.2901 39.4145 23.4396 38.9553 23.548C38.5086 23.6359 37.9727 23.7265 37.5256 23.8162C37.0527 23.8899 36.5741 23.9193 36.0958 23.9041C35.2183 23.9296 34.3427 23.8088 33.5049 23.5466C32.7405 23.2985 32.0177 22.937 31.3606 22.4743C30.7312 22.0096 30.1611 21.4695 29.6631 20.866C29.1906 20.2329 28.8003 19.5424 28.5015 18.8111C28.1699 18.0685 27.9298 17.2884 27.7866 16.4879C27.6091 15.6658 27.5192 14.8272 27.5184 13.9862C27.519 13.0856 27.6089 12.1872 27.7866 11.3043C27.9651 10.4109 28.2333 9.60674 28.5015 8.71335C28.8102 7.91305 29.2314 7.16085 29.7524 6.47943C30.2533 5.77018 30.8552 5.138 31.5391 4.60295C32.9543 3.46427 34.7266 2.86295 36.5425 2.90543C37.3319 2.88595 38.1186 3.00699 38.8657 3.26287C39.5426 3.48115 40.1772 3.81348 40.7421 4.24552C41.2849 4.68523 41.7658 5.19618 42.1719 5.76454C42.604 6.32947 42.9363 6.9641 43.1545 7.64102C43.4041 8.34315 43.613 9.05908 43.7802 9.78524C44.0063 10.507 44.0972 11.2644 44.0484 12.0192L44.051 12.0231ZM38.331 11.3069C38.346 11.0359 38.3163 10.7642 38.2431 10.5028L37.9749 9.69863C37.9364 9.57218 37.8674 9.45714 37.7739 9.36368C37.6804 9.27021 37.5654 9.20118 37.4389 9.16268C37.2604 8.98418 36.9923 8.98418 36.6348 8.98418C36.2883 8.97726 35.9471 9.07037 35.6522 9.25237C35.3484 9.45415 35.1021 9.7312 34.9373 10.0565C34.74 10.3735 34.561 10.7016 34.4013 11.0392C34.2817 11.3577 34.1919 11.6867 34.1331 12.0218L38.3323 11.6644V11.3069H38.331Z" fill="#AFD534"/>
<path d="M71.2116 13.8992C71.2116 15.2393 71.2116 16.5811 71.1236 18.0092C71.0357 19.3492 70.9451 20.6911 70.8554 22.1191L63.5289 22.4765C63.7074 20.779 63.9756 19.1707 64.1546 17.4732C64.333 15.8112 64.4225 14.1409 64.4228 12.4694V11.9335C64.4336 11.6331 64.4041 11.3326 64.3348 11.0401C64.3348 10.6826 64.2469 10.3252 64.2469 9.96774C64.239 9.63289 64.1788 9.30134 64.0684 8.9851C63.9939 8.74148 63.9043 8.50273 63.8002 8.27021C63.7669 8.19981 63.717 8.13859 63.6547 8.09186C63.5924 8.04512 63.5197 8.01429 63.4428 8.00202C63.2891 7.98484 63.1336 8.00889 62.9922 8.07171C62.8509 8.13453 62.7288 8.23385 62.6386 8.35946C62.4373 8.62802 62.286 8.93065 62.1919 9.25286C62.0892 9.60174 62.0292 9.96183 62.0134 10.3252V13.631C62.0134 15.15 62.0134 16.5794 61.9255 18.0092C61.8376 19.4389 61.747 20.9575 61.6573 22.3873L54.8667 22.6555C55.0452 20.958 55.3134 19.3497 55.4027 17.6517C55.5835 15.9899 55.673 14.3195 55.6709 12.6479V12.112C55.6859 11.8115 55.6563 11.5104 55.5829 11.2186C55.5829 10.8611 55.495 10.5037 55.495 10.1462C55.4071 9.7888 55.4071 9.43136 55.3165 9.16361L55.0483 8.35946C55.015 8.28906 54.9651 8.22784 54.9028 8.18111C54.8405 8.13438 54.7678 8.10353 54.6909 8.09127C54.5734 8.08798 54.4566 8.11026 54.3485 8.15657C54.2405 8.20288 54.1438 8.2721 54.0652 8.35946C53.8939 8.56788 53.7717 8.81223 53.7078 9.07435C53.6198 9.34255 53.5293 9.69999 53.4396 10.0574C53.366 10.4099 53.3365 10.7701 53.3516 11.1298V12.738L52.9942 23.1919H45.7468C45.9253 21.5836 46.015 19.9753 46.1935 18.367C46.372 16.7588 46.4617 15.1505 46.6402 13.5422L46.9084 8.71735C46.9963 7.10907 46.9963 5.50079 46.9963 3.89251L53.7869 3.62431V5.32184C53.9997 5.03215 54.239 4.76294 54.5018 4.5177C54.7584 4.23199 55.0602 3.99046 55.3952 3.80281C55.7122 3.60549 56.0403 3.42655 56.3778 3.26687C56.7267 3.1641 57.0868 3.10416 57.4502 3.08836C57.8691 3.06986 58.2888 3.09936 58.701 3.1763C59.0459 3.24079 59.3779 3.36154 59.6837 3.53374C59.9733 3.74651 60.2426 3.98585 60.4878 4.24863C60.7668 4.59354 60.979 4.98748 61.1134 5.41022C61.3884 5.09048 61.6871 4.79184 62.0068 4.51682C62.2957 4.22948 62.6271 3.98835 62.9895 3.80193C63.33 3.61537 63.6895 3.46563 64.0618 3.35524C64.4993 3.23992 64.9495 3.17995 65.4019 3.17674C66.2095 3.15274 67.0096 3.33732 67.7251 3.71268C68.3605 4.0641 68.9099 4.5525 69.3333 5.14246C69.8011 5.75111 70.1359 6.45121 70.316 7.19744C70.5886 7.97777 70.7685 8.78748 70.8519 9.60986L71.1201 12.0223C71.2009 12.6443 71.2303 13.2719 71.2081 13.8988L71.2116 13.8992Z" fill="#AFD534"/>
<path d="M90.9577 3.44531C90.511 6.84038 90.1535 10.1466 89.8853 13.4524C89.6171 16.7583 89.2597 20.1538 88.9919 23.4596L83.0948 23.9063L83.363 21.6724C83.1773 21.8762 82.9672 22.0562 82.7373 22.2083C82.218 22.5102 81.6383 22.6932 81.0398 22.7443C80.7716 22.7443 80.4142 22.8322 80.1464 22.8322C79.5356 22.8083 78.9325 22.6877 78.3596 22.4747C77.7857 22.2136 77.2456 21.8836 76.7513 21.4921C76.288 21.0582 75.869 20.5792 75.5005 20.0623C75.1207 19.5283 74.7916 18.96 74.5174 18.3648C74.2693 17.7838 74.0603 17.1869 73.8918 16.578C73.7484 15.9938 73.6883 15.3922 73.7133 14.7912C73.7133 13.8978 73.7133 13.0044 73.8012 12.1093C73.8012 11.2159 73.8891 10.2328 73.9797 9.33942C74.0703 8.44602 74.1582 7.46294 74.3372 6.56955C74.4639 5.69598 74.6429 4.83079 74.8731 3.97862C76.0347 4.06655 77.1963 4.06656 78.3579 4.15713C79.5177 4.24649 80.6827 4.24649 81.8426 4.15713C81.6641 4.96127 81.3959 5.85466 81.217 6.6588C80.9957 7.48299 80.8168 8.31798 80.681 9.16047C80.5025 9.96461 80.4128 10.858 80.2343 11.6621C80.1273 12.5219 80.0677 13.3868 80.0558 14.2531V15.1465C80.0716 15.5098 80.1316 15.8699 80.2343 16.2188C80.2988 16.5637 80.4196 16.8957 80.5918 17.2014C80.6661 17.328 80.77 17.4347 80.8944 17.5125C81.0189 17.5902 81.1603 17.6368 81.3067 17.6481C81.6796 17.6346 82.0325 17.4762 82.2906 17.2067C82.6183 16.8476 82.8624 16.4205 83.0055 15.9559C83.2371 15.3775 83.4165 14.7795 83.5415 14.1691C83.704 13.4623 83.8233 12.7462 83.8989 12.0249C83.9868 11.31 84.0774 10.5058 84.1671 9.79094C84.255 8.9868 84.255 8.27191 84.3456 7.64672C84.3456 6.93183 84.4335 6.39588 84.4335 5.85993V3.53324H89.6158C90.0643 3.54561 90.5129 3.51618 90.9559 3.44531H90.9577Z" fill="#AFD534"/>
<path d="M106.594 4.07095L106.058 10.0574C105.79 9.96945 105.522 9.96945 105.254 9.87888H104.45C103.785 9.87406 103.123 9.96437 102.484 10.1471C101.899 10.3051 101.353 10.5785 100.876 10.9512C100.421 11.3347 100.029 11.7868 99.714 12.2913C99.4199 12.8731 99.2669 13.5159 99.2673 14.1678C99.2613 14.6574 99.3525 15.1434 99.5355 15.5976C99.6906 15.9782 99.9359 16.3155 100.25 16.5802C100.562 16.8594 100.926 17.0726 101.322 17.2067C101.753 17.3534 102.208 17.4141 102.662 17.3852C103.022 17.4004 103.382 17.3709 103.735 17.2973L104.807 17.0291C105.179 16.9187 105.539 16.769 105.879 16.5824C106.237 16.4039 106.505 16.2249 106.862 16.0464L106.594 22.7478C106.236 22.9263 105.79 23.1052 105.432 23.2837C104.998 23.4443 104.549 23.564 104.092 23.6412L102.752 23.9093C102.339 23.98 101.92 24.0094 101.501 23.9973C100.245 24.002 99.0002 23.759 97.838 23.2824C96.7637 22.7848 95.7939 22.0874 94.9802 21.2274C94.1708 20.3405 93.5344 19.3101 93.1037 18.1894C92.6718 17.0166 92.4593 15.7744 92.4767 14.5248C92.4525 13.0415 92.6636 11.5638 93.1024 10.1466C93.5043 8.8593 94.1742 7.67167 95.0681 6.66188C95.9605 5.6649 97.0577 4.87243 98.2847 4.3387C99.6696 3.75107 101.158 3.44728 102.663 3.44531C103.321 3.46044 103.978 3.52008 104.629 3.62382C105.308 3.63398 105.977 3.78614 106.594 4.07051L106.594 4.07095Z" fill="#AFD534"/>
<path d="M126.429 23.0128L119.281 23.3702V17.2932H115.976L115.797 23.5478H109.363L109.899 3.53358L116.69 3.80177L116.243 14.0771H119.46V3.35596L125.982 3.53446L126.429 23.0128Z" fill="#AFD534"/>
<path d="M146.712 13.5418C146.716 14.3831 146.626 15.2221 146.443 16.0435C146.279 16.8347 145.976 17.5909 145.55 18.2774C144.84 19.6988 143.759 20.9026 142.423 21.7621C141.721 22.1798 140.971 22.5098 140.189 22.7448C139.38 23.0007 138.535 23.1215 137.687 23.1022C136.868 23.1284 136.051 23.0073 135.275 22.7448C134.519 22.5566 133.796 22.2554 133.13 21.8514C132.448 21.4546 131.819 20.9743 131.256 20.4216C130.709 19.8526 130.23 19.223 129.826 18.5451C129.437 17.8403 129.137 17.09 128.933 16.3112C128.726 15.5224 128.606 14.7135 128.575 13.8988C128.576 13.0873 128.666 12.2783 128.843 11.4864C129.008 10.6951 129.31 9.93895 129.737 9.25244C130.447 7.83101 131.527 6.62725 132.864 5.76769C133.505 5.29889 134.235 4.96464 135.008 4.78505C135.788 4.53553 136.602 4.4148 137.421 4.4276C138.7 4.39485 139.974 4.60722 141.173 5.05324C142.277 5.46347 143.282 6.10301 144.121 6.92972C144.927 7.75093 145.565 8.72173 145.998 9.78752C146.483 10.9785 146.726 12.2541 146.713 13.54L146.712 13.5418ZM140.368 13.8992C140.359 13.5059 140.299 13.1154 140.189 12.7376C140.084 12.348 139.902 11.9833 139.653 11.6653C139.397 11.3796 139.095 11.1381 138.76 10.9504C138.398 10.774 138.001 10.6824 137.598 10.6824C137.196 10.6824 136.798 10.774 136.437 10.9504C136.105 11.1065 135.803 11.3181 135.543 11.5761C135.28 11.85 135.095 12.1892 135.007 12.5587C134.769 13.3148 134.769 14.1258 135.007 14.8819C135.094 15.2784 135.278 15.647 135.543 15.9542C135.772 16.29 136.079 16.5658 136.437 16.7583C136.796 16.9411 137.195 17.0332 137.598 17.0265C138.03 17.0329 138.458 16.9412 138.849 16.7583C139.184 16.5707 139.486 16.3292 139.742 16.0435C140.025 15.7478 140.211 15.3742 140.278 14.9711C140.278 14.7029 140.366 14.3455 140.366 13.8988L140.368 13.8992Z" fill="#AFD534"/>
<path d="M134.024 6.12598L130.895 2.55241C131.165 2.30198 131.326 1.9554 131.342 1.58758C131.359 1.21975 131.23 0.860225 130.983 0.586692C130.739 0.275892 130.384 0.0713134 129.992 0.0154328C129.6 -0.0404477 129.202 0.0566646 128.88 0.286605C128.558 0.516546 128.337 0.861645 128.263 1.25025C128.189 1.63885 128.267 2.0411 128.482 2.37347C128.682 2.66872 128.986 2.87826 129.333 2.96092C129.681 3.04358 130.046 2.99337 130.358 2.82017L132.86 6.84087L134.021 6.12598H134.024Z" fill="#AFD534"/>
<path d="M147.159 0.318588C146.837 0.0742403 146.433 -0.034509 146.032 0.015616C145.631 0.065741 145.266 0.270757 145.014 0.586781C144.852 0.892248 144.774 1.23587 144.789 1.58168C144.805 1.9275 144.913 2.2628 145.102 2.5525L142.066 5.85832L143.049 6.66422L145.461 2.91171C145.773 3.08491 146.139 3.13511 146.486 3.05246C146.833 2.9698 147.137 2.76026 147.338 2.46502C147.474 2.31592 147.578 2.14025 147.643 1.94902C147.709 1.7578 147.734 1.55514 147.717 1.35379C147.7 1.15244 147.642 0.95674 147.546 0.778972C147.45 0.601204 147.318 0.445214 147.159 0.320788" fill="#AFD534"/>
</svg>
