<svg width="130" height="25" viewBox="0 0 130 25" fill="none" xmlns="http://www.w3.org/2000/svg">
<path d="M32.0928 6.16185H36.3575C37.6348 6.07889 38.9114 6.33293 40.0594 6.89849C40.4517 7.13619 40.7714 7.47665 40.9838 7.88298C41.1962 8.2893 41.2932 8.74597 41.2644 9.20347C41.2833 9.82927 41.0968 10.4441 40.7332 10.954C40.4036 11.4275 39.9089 11.7608 39.346 11.8887V11.9758C39.9956 12.1054 40.5791 12.4586 40.9948 12.9738C41.3544 13.5113 41.5322 14.1498 41.5022 14.7956C41.5187 15.3001 41.4144 15.8012 41.1979 16.2573C40.9815 16.7133 40.6591 17.1111 40.2576 17.4174C39.2567 18.1003 38.0595 18.4369 36.849 18.3759H32.0928V6.16185ZM35.3983 10.8431H36.3734C36.762 10.8708 37.149 10.7707 37.4752 10.5579C37.6049 10.456 37.7079 10.3243 37.7755 10.1739C37.8432 10.0236 37.8734 9.85911 37.8637 9.69457C37.8637 9.00545 37.3405 8.66485 36.2782 8.66485H35.3825L35.3983 10.8431ZM35.3983 13.259V15.8253H36.5557C37.6126 15.8253 38.1411 15.3897 38.1411 14.5184C38.1411 14.3336 38.0955 14.1516 38.0084 13.9886C37.9213 13.8256 37.7954 13.6865 37.6417 13.5837C37.2897 13.346 36.8687 13.2318 36.4447 13.259H35.3983Z" fill="white"/>
<path d="M45.2705 18.3829V6.14648H48.5649V18.3829H45.2705Z" fill="white"/>
<path d="M57.9329 18.383H54.7508V9.21483H51.8594V6.61719H60.8014V9.21483H57.9329V18.383Z" fill="white"/>
<path d="M77.6388 18.3829H73.7985L72.6534 13.0503C72.6014 12.8281 72.5157 12.3837 72.3963 11.7172C72.2794 11.0506 72.186 10.503 72.1314 10.0507C72.0951 10.4158 72.025 10.8681 71.9211 11.4077C71.8198 11.9394 71.7264 12.4393 71.6329 12.8916C71.5394 13.3439 71.1344 15.1691 70.4333 18.3829H66.6007L63.625 6.14648H66.7409L68.0418 12.2806C68.3378 13.6402 68.5404 14.7194 68.6494 15.5182C68.7195 14.9469 68.8519 14.1771 69.0311 13.2011C69.2103 12.225 69.3894 11.4156 69.5452 10.7728L70.6046 6.14648H73.6115L74.6398 10.7728C74.8163 11.5082 74.9955 12.3652 75.1772 13.3439C75.3564 14.312 75.4733 15.0421 75.5356 15.5182C75.6057 14.8993 75.8004 13.828 76.1198 12.2964L77.4519 6.14648H80.5678L77.6388 18.3829Z" fill="white"/>
<path d="M90.9218 18.3829H83.8623V6.14648H90.9218V8.79692H87.0684V10.7252H90.6289V13.3757H87.0684V15.6849H90.9218V18.3829Z" fill="white"/>
<path d="M98.4055 13.9311V18.3829H95.1572V6.14648H99.0614C102.331 6.14648 103.965 7.35003 103.965 9.75711C103.969 10.4463 103.78 11.1223 103.419 11.7057C103.058 12.2891 102.54 12.7556 101.927 13.0503L105.511 18.3829H101.826L99.2644 13.9311H98.4055ZM98.4055 11.4394H99.0146C100.155 11.4394 100.717 10.9316 100.717 9.90788C100.717 9.06673 100.162 8.64615 99.0458 8.64615H98.4055V11.4394Z" fill="white"/>
<path d="M118.634 18.3829H114.939L112.586 13.7101L111.614 14.2962V18.3829H108.335V6.17024H111.574V11.4687C111.876 10.92 112.211 10.3909 112.578 9.88474L115.12 6.14648H118.689L114.877 11.6192L118.634 18.3829Z" fill="white"/>
<path d="M129.035 18.3829H121.513V6.14648H129.01V8.79692H124.918V10.7252H128.699V13.3757H124.95V15.6849H129.043L129.035 18.3829Z" fill="white"/>
<path d="M7.97722 20.0631L3.09206 17.1122C2.97084 17.0146 2.88933 16.8762 2.86277 16.7229C2.83621 16.5695 2.86642 16.4118 2.94775 16.2791C3.02909 16.1464 3.15597 16.0479 3.30467 16.002C3.45336 15.9561 3.61369 15.966 3.75565 16.0297L8.64081 18.9806C8.76107 19.0522 8.85434 19.1614 8.90614 19.2914C8.95794 19.4214 8.96537 19.5649 8.92728 19.6995C8.88919 19.8342 8.80771 19.9525 8.69549 20.0361C8.58327 20.1197 8.44659 20.1639 8.30666 20.1619C8.19087 20.1618 8.07719 20.1309 7.97722 20.0725V20.0631ZM8.06194 15.4885L3.08735 12.4059C2.96029 12.3095 2.8738 12.1691 2.84481 12.0123C2.81582 11.8554 2.84643 11.6934 2.93064 11.558C3.01486 11.4226 3.1466 11.3234 3.30007 11.28C3.45355 11.2366 3.61769 11.2521 3.76035 11.3234L8.73494 14.4014C8.85326 14.4741 8.94448 14.5836 8.99465 14.7131C9.04482 14.8426 9.05118 14.985 9.01274 15.1184C8.9743 15.2519 8.89319 15.3691 8.78183 15.4521C8.67046 15.5351 8.53496 15.5793 8.39608 15.5779C8.27802 15.579 8.16211 15.5463 8.06194 15.4838V15.4885ZM10.8293 0L7.71367 1.79782L18.0676 7.87368C18.1625 7.93008 18.2413 8.00989 18.2965 8.10548C18.3517 8.20107 18.3815 8.30923 18.3829 8.41961L18.4253 16.4674C18.4265 16.551 18.4111 16.6341 18.38 16.7117C18.3489 16.7893 18.3026 16.8599 18.2439 16.9195C18.1852 16.979 18.1153 17.0263 18.0381 17.0586C17.961 17.0909 17.8782 17.1075 17.7946 17.1075C17.6264 17.1139 17.4624 17.0538 17.3382 16.9401C17.214 16.8265 17.1396 16.6685 17.131 16.5004L17.0887 8.81495L6.44296 2.532L3.66623 4.13215L14.1566 10.3021C14.2528 10.3582 14.3326 10.4386 14.388 10.5353C14.4433 10.6319 14.4723 10.7414 14.472 10.8528L14.519 19.3524C14.5196 19.4362 14.5037 19.5194 14.472 19.597C14.4404 19.6746 14.3937 19.7452 14.3346 19.8047C14.2755 19.8642 14.2053 19.9114 14.1279 19.9437C14.0505 19.9759 13.9675 19.9925 13.8837 19.9925C13.7184 19.9876 13.5616 19.9185 13.4465 19.7999C13.3314 19.6812 13.2671 19.5224 13.2671 19.3571L13.2201 11.2199L2.39552 4.86634L0 6.25V18.75L10.8245 25L21.6491 18.75V6.25L10.8293 0Z" fill="white"/>
</svg>
