<svg width="59" height="25" viewBox="0 0 59 25" fill="none" xmlns="http://www.w3.org/2000/svg">
<path fill-rule="evenodd" clip-rule="evenodd" d="M17.4605 4.1198C17.1814 2.94566 16.2332 2.04839 15.0455 1.83437C13.8578 1.62034 12.6561 2.13021 11.9846 3.13306L5.51365 12.798C4.5809 14.1912 4.95412 16.0767 6.34727 17.0095C7.74043 17.9422 9.62595 17.569 10.5587 16.1758L13.1618 12.2879L15.1252 20.5462C15.4031 21.7151 16.3443 22.6102 17.5258 22.829C18.7072 23.0478 19.9066 22.5491 20.5847 21.5572L26.7442 12.547L28.3355 19.9516C28.5905 21.1382 29.5277 22.0589 30.7187 22.2927C31.9096 22.5265 33.1253 22.0284 33.81 21.0263L39.8527 12.1818L41.8243 20.3773C42.105 21.544 43.0465 22.4358 44.2267 22.6529C45.4068 22.87 46.6041 22.3715 47.2815 21.3811L53.756 11.915C54.7025 10.5312 54.348 8.64208 52.9642 7.69557C51.5803 6.74905 49.6912 7.10358 48.7447 8.48742L46.1287 12.3121L44.1559 4.1119C43.8752 2.94497 42.9333 2.053 41.7528 1.83619C40.5723 1.61938 39.3749 2.11844 38.6978 3.10945L32.7857 11.7629L31.195 4.36086C30.94 3.17444 30.003 2.25384 28.8122 2.01991C27.6215 1.78599 26.4058 2.28369 25.721 3.28549L19.4449 12.4663L17.4605 4.1198ZM3.03571 25.0004C4.71228 25.0004 6.07142 23.6413 6.07142 21.9647C6.07142 20.2881 4.71228 18.929 3.03571 18.929C1.35913 18.929 0 20.2881 0 21.9647C0 23.6413 1.35913 25.0004 3.03571 25.0004Z" fill="url(#paint0_linear_803_2029)"/>
<path d="M58.9008 3.03571C58.9008 4.71228 57.5417 6.07142 55.8651 6.07142C54.1885 6.07142 52.8294 4.71228 52.8294 3.03571C52.8294 1.35913 54.1885 0 55.8651 0C57.5417 0 58.9008 1.35913 58.9008 3.03571Z" fill="#AFD534"/>
<defs>
<linearGradient id="paint0_linear_803_2029" x1="49.758" y1="13.5149" x2="8.90773" y2="13.38" gradientUnits="userSpaceOnUse">
<stop offset="0.0208333" stop-color="#AFD534"/>
<stop offset="0.505208" stop-color="#FFD700"/>
<stop offset="1" stop-color="#FF4D06"/>
</linearGradient>
</defs>
</svg>
