<svg width="244" height="25" viewBox="0 0 244 25" fill="none" xmlns="http://www.w3.org/2000/svg">
  <path d="M71.0349 2.90048L71.0924 6.01035C72.385 3.68114 74.2407 2.51654 76.6595 2.51654C79.3342 2.51654 81.0619 3.78993 81.8426 6.33669C82.4953 5.06971 83.3336 4.11627 84.3574 3.47638C85.394 2.83649 86.5202 2.51654 87.736 2.51654C91.473 2.51654 93.3863 4.92253 93.4758 9.73452V23.6713H91.345V9.86889C91.3194 8.0772 90.9867 6.74622 90.3468 5.87597C89.7069 4.99292 88.6575 4.5514 87.1985 4.5514C85.8803 4.57699 84.7669 5.08891 83.8583 6.08714C82.9496 7.08537 82.4313 8.33955 82.3033 9.8497V23.6713H80.1533V9.92648C80.1533 8.10919 79.8142 6.75902 79.1359 5.87597C78.4704 4.99292 77.4274 4.5514 76.0068 4.5514C74.8422 4.5514 73.8312 4.95453 72.9737 5.76079C72.1291 6.56705 71.5148 7.71886 71.1308 9.2162V23.6713H69V2.90048H71.0349Z" fill="#555555"/>
  <path d="M105.915 24.0553C103.471 24.0553 101.558 23.2554 100.176 21.6557C98.7933 20.056 98.0895 17.7779 98.0639 14.8217V12.2877C98.0639 9.2418 98.7293 6.855 100.06 5.1273C101.391 3.38679 103.221 2.51654 105.551 2.51654C107.803 2.51654 109.518 3.25242 110.695 4.72417C111.886 6.19592 112.493 8.44833 112.519 11.4814V13.4779H100.176V14.6489C100.176 17.0293 100.681 18.8658 101.692 20.1583C102.716 21.4509 104.156 22.0972 106.011 22.0972C108.059 22.0972 109.716 21.3485 110.983 19.8512L112.097 21.2718C110.74 23.1274 108.68 24.0553 105.915 24.0553ZM105.551 4.513C103.874 4.513 102.581 5.1081 101.673 6.2983C100.777 7.4757 100.284 9.20341 100.195 11.4814H110.388V10.9247C110.286 6.65024 108.673 4.513 105.551 4.513Z" fill="#555555"/>
  <path d="M119.027 2.90048L119.084 6.01035C120.377 3.68114 122.233 2.51654 124.651 2.51654C127.326 2.51654 129.054 3.78993 129.834 6.33669C130.487 5.06971 131.325 4.11627 132.349 3.47638C133.386 2.83649 134.512 2.51654 135.728 2.51654C139.465 2.51654 141.378 4.92253 141.468 9.73452V23.6713H139.337V9.86889C139.311 8.0772 138.979 6.74622 138.339 5.87597C137.699 4.99292 136.649 4.5514 135.19 4.5514C133.872 4.57699 132.759 5.08891 131.85 6.08714C130.941 7.08537 130.423 8.33955 130.295 9.8497V23.6713H128.145V9.92648C128.145 8.10919 127.806 6.75902 127.128 5.87597C126.462 4.99292 125.419 4.5514 123.999 4.5514C122.834 4.5514 121.823 4.95453 120.966 5.76079C120.121 6.56705 119.507 7.71886 119.123 9.2162V23.6713H116.992V2.90048H119.027Z" fill="#555555"/>
  <path d="M146.248 12.2301C146.248 9.2354 146.926 6.8678 148.283 5.1273C149.639 3.38679 151.488 2.51654 153.83 2.51654C156.185 2.51654 158.034 3.374 159.378 5.08891C160.735 6.80381 161.419 9.16501 161.432 12.1725V14.3801C161.432 17.426 160.748 19.8 159.378 21.5021C158.022 23.2042 156.185 24.0553 153.869 24.0553C151.552 24.0553 149.716 23.2234 148.359 21.5597C147.003 19.896 146.299 17.6052 146.248 14.6873V12.2301ZM148.398 14.3801C148.398 16.7733 148.878 18.6546 149.837 20.024C150.81 21.3933 152.154 22.078 153.869 22.078C155.622 22.078 156.959 21.4189 157.881 20.1008C158.815 18.7826 159.289 16.8949 159.301 14.4377V12.2301C159.301 9.8369 158.815 7.95562 157.842 6.58625C156.87 5.20409 155.532 4.513 153.83 4.513C152.179 4.513 150.868 5.18489 149.895 6.52866C148.922 7.87243 148.423 9.72172 148.398 12.0765V14.3801Z" fill="#555555"/>
  <path d="M180.859 14.1498L182.76 1.30715H187.943L183.835 23.6713H178.421L176.118 11.731L173.891 23.6713H168.477L164.35 1.30715H169.553L171.434 14.2266L173.757 1.30715H178.517L180.859 14.1498Z" fill="#555555"/>
  <path d="M196.274 23.6713H190.861V1.30715H196.274V23.6713Z" fill="#555555"/>
  <path d="M207.255 15.7623L205.508 17.7588V23.6713H200.075V1.30715H205.508V10.1568L206.756 8.0836L210.538 1.30715H217.295L210.864 11.2319L217.352 23.6713H210.96L207.255 15.7623Z" fill="#555555"/>
  <path d="M224.686 23.6713H219.272V1.30715H224.686V23.6713Z" fill="#555555"/>
  <path d="M238.622 17.6628C238.622 16.9333 238.405 16.3446 237.97 15.8967C237.547 15.4487 236.747 15.0392 235.57 14.6681C232.947 13.9514 231.129 13.0747 230.118 12.0381C229.107 10.9887 228.602 9.51055 228.602 7.60368C228.602 5.684 229.28 4.10347 230.637 2.86208C231.993 1.62069 233.753 1 235.916 1C238.334 1 240.26 1.63349 241.694 2.90048C243.14 4.15466 243.863 5.85038 243.863 7.98761H238.45C238.45 7.14296 238.219 6.45827 237.759 5.93356C237.311 5.40885 236.703 5.1465 235.935 5.1465C235.257 5.1465 234.725 5.35766 234.342 5.77999C233.958 6.20232 233.766 6.73982 233.766 7.39251C233.766 8.00681 233.977 8.51232 234.399 8.90906C234.834 9.30579 235.608 9.70252 236.722 10.0993C239.23 10.7391 241.035 11.6286 242.135 12.7676C243.236 13.9066 243.786 15.4807 243.786 17.49C243.786 19.4993 243.121 21.0862 241.79 22.2508C240.459 23.4026 238.616 23.9785 236.261 23.9785C235.135 23.9785 234.041 23.8121 232.979 23.4794C231.929 23.1466 231.027 22.6475 230.272 21.982C228.736 20.6511 227.968 18.8338 227.968 16.5302H233.42C233.42 17.7715 233.65 18.6418 234.111 19.1409C234.572 19.6272 235.385 19.8704 236.549 19.8704C237.931 19.8704 238.622 19.1345 238.622 17.6628Z" fill="#555555"/>
  <path fill-rule="evenodd" clip-rule="evenodd" d="M17.4605 4.1198C17.1814 2.94566 16.2332 2.04839 15.0455 1.83437C13.8578 1.62034 12.6561 2.13021 11.9846 3.13306L5.51365 12.798C4.5809 14.1912 4.95412 16.0767 6.34727 17.0095C7.74043 17.9422 9.62595 17.569 10.5587 16.1758L13.1618 12.2879L15.1252 20.5462C15.4031 21.7151 16.3443 22.6102 17.5258 22.829C18.7072 23.0478 19.9066 22.5491 20.5847 21.5572L26.7442 12.547L28.3355 19.9516C28.5905 21.1382 29.5277 22.0589 30.7187 22.2927C31.9096 22.5265 33.1253 22.0284 33.81 21.0263L39.8527 12.1818L41.8243 20.3773C42.105 21.544 43.0465 22.4358 44.2267 22.6529C45.4068 22.87 46.6041 22.3715 47.2815 21.3811L53.756 11.915C54.7025 10.5312 54.348 8.64208 52.9642 7.69557C51.5803 6.74905 49.6912 7.10358 48.7447 8.48742L46.1287 12.3121L44.1559 4.1119C43.8752 2.94497 42.9333 2.053 41.7528 1.83619C40.5723 1.61938 39.3749 2.11844 38.6978 3.10945L32.7857 11.7629L31.195 4.36086C30.94 3.17444 30.003 2.25384 28.8122 2.01991C27.6215 1.78599 26.4058 2.28369 25.721 3.28549L19.4449 12.4663L17.4605 4.1198ZM3.03571 25.0004C4.71228 25.0004 6.07142 23.6413 6.07142 21.9647C6.07142 20.2881 4.71228 18.929 3.03571 18.929C1.35913 18.929 0 20.2881 0 21.9647C0 23.6413 1.35913 25.0004 3.03571 25.0004Z" fill="#555555"/>
  <path d="M58.9008 3.03571C58.9008 4.71228 57.5417 6.07142 55.8651 6.07142C54.1885 6.07142 52.8294 4.71228 52.8294 3.03571C52.8294 1.35913 54.1885 0 55.8651 0C57.5417 0 58.9008 1.35913 58.9008 3.03571Z" fill="#555555"/>
</svg>
