<svg width="29" height="32" viewBox="0 0 29 32" fill="none" xmlns="http://www.w3.org/2000/svg">
<path d="M28.3773 3.31319C28.5172 3.12528 28.6186 2.91175 28.6757 2.6848C28.7328 2.45785 28.7445 2.22191 28.7101 1.99046C28.6757 1.75901 28.5958 1.53658 28.4751 1.33588C28.3544 1.13517 28.1952 0.960114 28.0065 0.820705C27.8179 0.681296 27.6036 0.580265 27.3757 0.523377C27.1479 0.46649 26.9111 0.454861 26.6787 0.489156C26.4464 0.52345 26.2231 0.602996 26.0216 0.723251C25.8202 0.843507 25.6444 1.00212 25.5045 1.19002C25.2912 1.52438 25.1856 1.9157 25.2018 2.31154C25.2181 2.70737 25.3555 3.0888 25.5955 3.40467L22.63 6.7277C20.1976 4.91459 17.2376 3.94204 14.1997 3.9578C11.322 3.96243 8.51253 4.83104 6.13788 6.45028L3.07974 2.94259C3.37285 2.6572 3.55292 2.27615 3.58696 1.86927C3.621 1.46238 3.50674 1.05689 3.26511 0.7271C3.12663 0.537307 2.95156 0.37693 2.75012 0.255354C2.54868 0.133779 2.32492 0.0534465 2.09194 0.0190566C1.85896 -0.0153333 1.62143 -0.00308931 1.39326 0.0550714C1.16508 0.113232 0.950846 0.216142 0.763078 0.35778C0.56376 0.488649 0.394398 0.659938 0.266066 0.860458C0.137734 1.06098 0.0533159 1.28621 0.0183264 1.52145C-0.0166632 1.75669 -0.00143347 1.99664 0.0630151 2.22561C0.127464 2.45459 0.239679 2.66744 0.392338 2.85026C0.633105 3.19504 0.991154 3.44119 1.40015 3.54313C1.80915 3.64507 2.24137 3.59588 2.61675 3.40467L5.11879 7.37401C3.57021 8.67768 2.32772 10.3041 1.47902 12.1383C0.630323 13.9726 0.196091 15.9701 0.206974 17.9898C0.210478 20.3206 0.79678 22.6138 1.91293 24.6623C3.02908 26.7108 4.63991 28.45 6.59991 29.7229C8.55992 30.9958 10.8074 31.7622 13.1392 31.9529C15.4711 32.1437 17.8139 31.7527 19.9561 30.8154C22.0983 29.8781 23.9724 28.4239 25.409 26.5842C26.8456 24.7446 27.7996 22.5774 28.1847 20.2784C28.5698 17.9794 28.374 15.621 27.6149 13.4163C26.8557 11.2116 25.5572 9.23004 23.8366 7.65057L26.3387 3.86377C26.8939 4.23309 27.8212 4.04843 28.3773 3.31064V3.31319ZM22.8192 18.1753C22.7266 18.7285 22.6339 19.191 22.5412 19.6522L21.9859 22.4217C21.8933 22.9748 21.2445 25.0065 20.6888 26.8527C19.1452 27.9139 17.3628 28.5797 15.4994 28.7912C16.0546 26.7603 16.9819 22.8833 17.2599 22.0523C17.538 20.9461 17.8152 19.8369 18.0014 18.637C17.9973 18.5077 18.0294 18.3798 18.0941 18.2677C18.0941 18.083 18.1868 17.8983 18.1868 17.6214C18.1771 17.3718 18.2084 17.1223 18.2794 16.8827V16.2368C18.3037 16.0769 18.2709 15.9135 18.1868 15.7752C18.0941 15.6829 18.0941 15.5905 18.0014 15.5905C17.8931 15.5878 17.7859 15.6116 17.689 15.6599C17.5922 15.7082 17.5088 15.7795 17.4461 15.8675C17.2696 16.0482 17.1421 16.2706 17.0754 16.5138C16.9827 16.7908 16.89 16.9755 16.7974 17.2525C16.7272 17.4605 16.6958 17.6795 16.7047 17.8988C16.6282 18.1688 16.5969 18.4496 16.612 18.7297C16.612 19.0067 16.5193 19.2829 16.5193 19.5607C16.3571 20.5564 16.1405 21.5426 15.8705 22.5148C15.6852 23.3458 14.6661 27.2228 14.2026 28.8843C12.7563 28.843 11.3351 28.4969 10.0327 27.8687C10.4961 26.2995 11.3299 23.2531 11.5152 22.3302C11.7933 21.2239 12.0705 20.1147 12.2567 18.9148C12.2526 18.7855 12.2847 18.6577 12.3494 18.5455C12.3494 18.3608 12.4421 18.1762 12.4421 17.8992C12.4271 17.6494 12.4585 17.399 12.5348 17.1606V16.5138C12.5493 16.3247 12.5175 16.1349 12.4421 15.9607C12.3494 15.8684 12.3494 15.776 12.2567 15.776C12.0713 15.776 11.9787 15.8684 11.7933 15.9607C11.6476 16.0956 11.5227 16.2511 11.4226 16.4223C11.3299 16.607 11.2372 16.884 11.1445 17.0687C11.0395 17.3021 10.9768 17.5521 10.9591 17.8073C10.9097 18.0261 10.8479 18.2419 10.7738 18.4536C10.752 18.6092 10.7211 18.7633 10.6811 18.9153L8.82785 27.2233C7.25465 26.2585 5.97365 24.8867 5.12135 23.2539C5.21403 23.0693 5.21403 22.8846 5.30672 22.7008L6.14086 19.3778C6.41892 18.2715 6.69611 17.1623 6.88233 16.0547C7.16038 14.9485 7.34576 13.8392 7.53112 12.7317L12.1645 12.547L11.9791 13.6533L12.5343 13.1002C12.7275 12.9164 12.946 12.761 13.1831 12.6385C13.3993 12.4615 13.6527 12.3353 13.9246 12.2692C14.1639 12.1932 14.4153 12.1619 14.6661 12.1769C14.9473 12.1618 15.2291 12.193 15.5002 12.2692C15.7783 12.3615 15.9636 12.3615 16.149 12.5462C16.3463 12.6504 16.5078 12.8113 16.6124 13.0078C16.7204 13.2481 16.8132 13.4948 16.8905 13.7465C17.1685 13.5618 17.3539 13.2848 17.6319 13.1002C17.8571 12.9137 18.1065 12.7584 18.3734 12.6385C18.6515 12.5462 18.9287 12.3615 19.2076 12.2692C20.0493 12.0816 20.9298 12.1791 21.7096 12.5462C22.0842 12.7807 22.401 13.0963 22.6364 13.4695C22.8599 13.9052 23.0161 14.3719 23.0998 14.854C23.1769 15.3734 23.2079 15.8984 23.1925 16.4232C22.9461 16.9752 22.8198 17.5729 22.8218 18.177L22.8192 18.1753Z" fill="white"/>
</svg>
