<svg width="345" height="49" viewBox="0 0 345 49" xmlns="http://www.w3.org/2000/svg">
<path d="M0.875 14H5.21875V19.875C6.73958 17.7083 8.30208 16.125 9.90625 15.125C12.1146 13.7917 14.4375 13.125 16.875 13.125C18.5208 13.125 20.0833 13.4479 21.5625 14.0938C23.0417 14.7396 24.25 15.6042 25.1875 16.6875C26.125 17.75 26.9375 19.2812 27.625 21.2812C29.0833 18.6146 30.9062 16.5938 33.0938 15.2188C35.2812 13.8229 37.6354 13.125 40.1562 13.125C42.5104 13.125 44.5833 13.7188 46.375 14.9062C48.1875 16.0938 49.5312 17.75 50.4062 19.875C51.2812 22 51.7188 25.1875 51.7188 29.4375V48H47.25V29.4375C47.25 25.7917 46.9896 23.2917 46.4688 21.9375C45.9479 20.5625 45.0521 19.4583 43.7812 18.625C42.5312 17.7917 41.0312 17.375 39.2812 17.375C37.1562 17.375 35.2083 18 33.4375 19.25C31.6875 20.5 30.4062 22.1667 29.5938 24.25C28.7812 26.3333 28.375 29.8125 28.375 34.6875V48H24.0312V30.5938C24.0312 26.4896 23.7708 23.7083 23.25 22.25C22.75 20.7708 21.8646 19.5938 20.5938 18.7188C19.3229 17.8229 17.8125 17.375 16.0625 17.375C14.0417 17.375 12.1458 17.9896 10.375 19.2188C8.625 20.4271 7.32292 22.0625 6.46875 24.125C5.63542 26.1875 5.21875 29.3438 5.21875 33.5938V48H0.875V14ZM89.5938 36.7188L93.2812 38.6562C92.0729 41.0312 90.6771 42.9479 89.0938 44.4062C87.5104 45.8646 85.7292 46.9792 83.75 47.75C81.7708 48.5 79.5312 48.875 77.0312 48.875C71.4896 48.875 67.1562 47.0625 64.0312 43.4375C60.9062 39.7917 59.3438 35.6771 59.3438 31.0938C59.3438 26.7812 60.6667 22.9375 63.3125 19.5625C66.6667 15.2708 71.1562 13.125 76.7812 13.125C82.5729 13.125 87.1979 15.3229 90.6562 19.7188C93.1146 22.8229 94.3646 26.6979 94.4062 31.3438H63.8438C63.9271 35.3021 65.1875 38.5521 67.625 41.0938C70.0625 43.6146 73.0729 44.875 76.6562 44.875C78.3854 44.875 80.0625 44.5729 81.6875 43.9688C83.3333 43.3646 84.7292 42.5625 85.875 41.5625C87.0208 40.5625 88.2604 38.9479 89.5938 36.7188ZM89.5938 27.5625C89.0104 25.2292 88.1562 23.3646 87.0312 21.9688C85.9271 20.5729 84.4583 19.4479 82.625 18.5938C80.7917 17.7396 78.8646 17.3125 76.8438 17.3125C73.5104 17.3125 70.6458 18.3854 68.25 20.5312C66.5 22.0938 65.1771 24.4375 64.2812 27.5625H89.5938ZM102.562 14H106.906V19.875C108.427 17.7083 109.99 16.125 111.594 15.125C113.802 13.7917 116.125 13.125 118.562 13.125C120.208 13.125 121.771 13.4479 123.25 14.0938C124.729 14.7396 125.938 15.6042 126.875 16.6875C127.812 17.75 128.625 19.2812 129.312 21.2812C130.771 18.6146 132.594 16.5938 134.781 15.2188C136.969 13.8229 139.323 13.125 141.844 13.125C144.198 13.125 146.271 13.7188 148.062 14.9062C149.875 16.0938 151.219 17.75 152.094 19.875C152.969 22 153.406 25.1875 153.406 29.4375V48H148.938V29.4375C148.938 25.7917 148.677 23.2917 148.156 21.9375C147.635 20.5625 146.74 19.4583 145.469 18.625C144.219 17.7917 142.719 17.375 140.969 17.375C138.844 17.375 136.896 18 135.125 19.25C133.375 20.5 132.094 22.1667 131.281 24.25C130.469 26.3333 130.062 29.8125 130.062 34.6875V48H125.719V30.5938C125.719 26.4896 125.458 23.7083 124.938 22.25C124.438 20.7708 123.552 19.5938 122.281 18.7188C121.01 17.8229 119.5 17.375 117.75 17.375C115.729 17.375 113.833 17.9896 112.062 19.2188C110.312 20.4271 109.01 22.0625 108.156 24.125C107.323 26.1875 106.906 29.3438 106.906 33.5938V48H102.562V14ZM178.75 13.125C183.979 13.125 188.312 15.0208 191.75 18.8125C194.875 22.2708 196.438 26.3646 196.438 31.0938C196.438 35.8438 194.781 40 191.469 43.5625C188.177 47.1042 183.938 48.875 178.75 48.875C173.542 48.875 169.281 47.1042 165.969 43.5625C162.677 40 161.031 35.8438 161.031 31.0938C161.031 26.3854 162.594 22.3021 165.719 18.8438C169.156 15.0312 173.5 13.125 178.75 13.125ZM178.75 17.4062C175.125 17.4062 172.01 18.75 169.406 21.4375C166.802 24.125 165.5 27.375 165.5 31.1875C165.5 33.6458 166.094 35.9375 167.281 38.0625C168.469 40.1875 170.073 41.8333 172.094 43C174.115 44.1458 176.333 44.7188 178.75 44.7188C181.167 44.7188 183.385 44.1458 185.406 43C187.427 41.8333 189.031 40.1875 190.219 38.0625C191.406 35.9375 192 33.6458 192 31.1875C192 27.375 190.688 24.125 188.062 21.4375C185.458 18.75 182.354 17.4062 178.75 17.4062ZM200.25 14H208.594L215.438 33.3438L222.812 14H227.906L235.125 33.125L241.969 14H250.375L237.969 48H232.562L225.312 28.625L217.844 48H212.5L200.25 14ZM258.562 0C260.062 0 261.344 0.541667 262.406 1.625C263.49 2.70833 264.031 4.02083 264.031 5.5625C264.031 7.08333 263.5 8.38542 262.438 9.46875C261.375 10.5312 260.104 11.0625 258.625 11.0625C257.104 11.0625 255.802 10.5208 254.719 9.4375C253.656 8.33333 253.125 7 253.125 5.4375C253.125 3.9375 253.656 2.65625 254.719 1.59375C255.781 0.53125 257.062 0 258.562 0ZM254.281 14H262.844V48H254.281V14ZM270.656 0.875H279.188V28.0312L291.75 14H302.438L287.812 30.3125L304.219 48H293.625L279.188 32.3438V48H270.656V0.875ZM311.062 0C312.562 0 313.844 0.541667 314.906 1.625C315.99 2.70833 316.531 4.02083 316.531 5.5625C316.531 7.08333 316 8.38542 314.938 9.46875C313.875 10.5312 312.604 11.0625 311.125 11.0625C309.604 11.0625 308.302 10.5208 307.219 9.4375C306.156 8.33333 305.625 7 305.625 5.4375C305.625 3.9375 306.156 2.65625 307.219 1.59375C308.281 0.53125 309.562 0 311.062 0ZM306.781 14H315.344V48H306.781V14ZM343.906 18.75L338.625 24.0312C336.479 21.9062 334.531 20.8438 332.781 20.8438C331.823 20.8438 331.073 21.0521 330.531 21.4688C329.99 21.8646 329.719 22.3646 329.719 22.9688C329.719 23.4271 329.885 23.8542 330.219 24.25C330.573 24.625 331.427 25.1458 332.781 25.8125L335.906 27.375C339.198 29 341.458 30.6562 342.688 32.3438C343.917 34.0312 344.531 36.0104 344.531 38.2812C344.531 41.3021 343.417 43.8229 341.188 45.8438C338.979 47.8646 336.01 48.875 332.281 48.875C327.323 48.875 323.365 46.9375 320.406 43.0625L325.656 37.3438C326.656 38.5104 327.823 39.4583 329.156 40.1875C330.51 40.8958 331.708 41.25 332.75 41.25C333.875 41.25 334.781 40.9792 335.469 40.4375C336.156 39.8958 336.5 39.2708 336.5 38.5625C336.5 37.25 335.26 35.9688 332.781 34.7188L329.906 33.2812C324.406 30.5104 321.656 27.0417 321.656 22.875C321.656 20.1875 322.688 17.8958 324.75 16C326.833 14.0833 329.49 13.125 332.719 13.125C334.927 13.125 337 13.6146 338.938 14.5938C340.896 15.5521 342.552 16.9375 343.906 18.75Z" fill="#afd534"/>
</svg>
