<svg width="36" height="54" viewBox="0 0 36 54" fill="none" xmlns="http://www.w3.org/2000/svg">
<path d="M1.11167 25.432C1.27228 21.8944 2.94917 18.299 4.86882 15.1697C5.23107 20.0809 7.5538 20.2656 8.88604 20.2656C9.49616 20.1679 10.0496 19.8508 10.4424 19.3739C10.8352 18.8969 11.0403 18.2929 11.0191 17.6754C11.088 15.832 11.5521 14.7553 14.4086 10.1924C14.6571 10.3164 14.9306 10.3823 15.2083 10.3851C16.3273 10.3851 18.1289 9.34004 16.6502 1.51025C16.6502 1.51025 27.6387 7.903 27.2253 18.4881C27.2294 18.8556 27.3794 19.2063 27.6422 19.4633C27.905 19.7202 28.259 19.8622 28.6265 19.858H28.6438C28.7109 19.8613 28.7782 19.8606 28.8452 19.8561C29.4649 19.8132 30.0667 19.6289 30.6041 19.3173C31.1415 19.0056 31.6004 18.575 31.9454 18.0584C33.1105 20.0811 34.6125 22.4364 34.553 24.6947C36.2036 37.6107 30.051 40.5657 18.137 52.8222C18.1057 52.8567 18.0625 52.8782 18.0161 52.8824C17.9696 52.8865 17.9233 52.873 17.8864 52.8446C6.14476 41.2589 0.436847 40.2978 1.11167 25.432Z" fill="#FCEA2B"/>
<path d="M19.0367 14.5604C18.7382 15.5514 17.7431 17.2032 14.8573 20.0445C14.7578 20.1105 14.7578 20.1766 14.6583 20.2427C14.1927 20.6408 13.8108 21.1273 13.5347 21.6741C13.2585 22.2209 13.0937 22.8171 13.0497 23.4281C13.0865 23.9663 13.2637 24.4856 13.5637 24.934C12.9048 25.5183 12.0727 25.8708 11.1945 25.9375C10.6134 25.9375 9.3965 25.4595 9.30248 24.7134C8.89903 24.9874 8.56783 25.3549 8.33712 25.7846C8.10641 26.2143 7.98305 26.6935 7.97754 27.1812C7.97754 30.131 9.54826 33.3144 14.1257 35.6932C14.1257 35.6932 15.4541 36.2985 15.5536 36.8932C15.5536 36.8932 15.5536 36.9593 15.653 36.9593H20.9274C21.1265 36.9593 21.1265 36.9593 21.1265 36.8932C21.1265 36.761 21.5245 36.0342 24.3107 34.3824C25.815 33.5461 27.082 32.341 27.9926 30.8805C28.0231 30.8067 28.0374 30.7273 28.0345 30.6476C28.0316 30.5679 28.0117 30.4897 27.976 30.4184C27.9403 30.347 27.8897 30.2842 27.8276 30.2341C27.7655 30.184 27.6934 30.1478 27.6161 30.128C27.545 30.1037 27.4707 30.0901 27.3955 30.0876C27.1818 30.0362 26.982 29.9385 26.8102 29.8015C26.6383 29.6645 26.4985 29.4915 26.4008 29.2947C26.4008 29.2947 26.2017 28.766 26.9978 27.5767C27.3705 27.1259 27.5987 26.5733 27.6528 25.9909C27.5473 25.7769 27.3677 25.6086 27.1474 25.5172C26.9271 25.4258 26.681 25.4176 26.4551 25.4941C26.4226 25.5039 26.3905 25.5153 26.3592 25.5284C25.8706 25.7336 25.3284 25.7737 24.815 25.6425C24.3016 25.5113 23.8451 25.216 23.5149 24.8015C23.5149 24.8015 22.8184 23.7445 23.4155 21.1676C23.8135 19.1853 22.4204 15.9477 20.6292 14.2958C20.1313 13.8995 19.1362 14.0317 19.0367 14.5604Z" fill="#F1B31C"/>
<path d="M33.562 31.479C33.4957 29.3525 32.5885 27.3392 31.0393 25.881C29.4902 24.4228 27.4258 23.6389 25.2992 23.7012C24.0437 23.691 22.8018 23.9612 21.6641 24.4921C20.5264 25.023 19.5216 25.8013 18.7231 26.77C18.6403 26.8752 18.5347 26.9602 18.4143 27.0187C18.2939 27.0771 18.1618 27.1075 18.0279 27.1075C17.8941 27.1075 17.762 27.0771 17.6416 27.0187C17.5212 26.9602 17.4156 26.8752 17.3328 26.77C16.5342 25.8013 15.5295 25.0231 14.3918 24.4922C13.2542 23.9613 12.0124 23.691 10.757 23.7012C8.63039 23.6388 6.56595 24.4228 5.0168 25.881C3.46765 27.3392 2.56038 29.3525 2.49416 31.479C2.44156 33.2909 2.99428 35.0686 4.06498 36.5312L16.6875 52.1317C17.0405 52.5434 18.8611 52.7743 19.2726 52.2747C21.8436 49.1528 32.0358 36.5016 32.0358 36.5016L32.0593 36.47C33.1397 35.0389 33.6726 33.2687 33.562 31.479Z" fill="#EA5A47"/>
<path d="M11.8388 37.8938C11.3667 37.7909 12.5291 40.2023 11.5196 41.9317C10.4245 43.8081 9.51898 44.7512 10.0286 46.6775C10.5523 48.6561 13.6689 50.3566 13.7955 49.8057C13.8114 49.6275 13.7951 49.448 13.7474 49.2756C13.7014 48.8173 13.7498 48.3545 13.8896 47.9156C14.0294 47.4767 14.2576 47.0711 14.5601 46.7238C14.9832 46.2154 15.2844 45.6169 15.4404 44.9741C15.5965 44.3314 15.6034 43.6614 15.4606 43.0156C15.2236 41.1493 13.7514 38.3111 11.8388 37.8938Z" fill="#FCEA2B"/>
<path d="M27.9391 29.2634C28.5218 29.0447 27.4149 32.0068 28.9573 33.7285C30.6304 35.5963 31.9217 36.4583 31.5683 38.7329C31.2054 41.0694 27.5135 43.6601 27.2694 43.069C27.2221 42.8704 27.2155 42.6644 27.2499 42.4632C27.2378 41.9359 27.1034 41.4186 26.8574 40.9521C26.6113 40.4856 26.2603 40.0826 25.8319 39.7748C25.2297 39.3166 24.7563 38.7104 24.4575 38.0151C24.1588 37.3198 24.0449 36.5591 24.127 35.8069C24.1437 33.659 25.5777 30.15 27.9391 29.2634Z" fill="#FCEA2B"/>
<path d="M32.6372 31.479C32.637 29.7479 32.0594 28.0663 30.9958 26.7005C29.9322 25.3347 28.4433 24.3627 26.765 23.9385C25.0867 23.5143 23.3148 23.662 21.7299 24.3583C20.1451 25.0546 18.8377 26.2597 18.015 27.7828C17.5016 26.8309 16.7953 25.9965 15.9412 25.3329C15.0872 24.6694 14.1041 24.1912 13.0548 23.9291C12.0054 23.667 10.913 23.6266 9.8472 23.8106C8.7814 23.9945 7.7657 24.3988 6.86497 24.9975C5.96424 25.5962 5.1983 26.3762 4.61607 27.2877C4.03385 28.1992 3.64814 29.222 3.4836 30.291C3.31905 31.36 3.37928 32.4515 3.66045 33.4959C3.94161 34.5403 4.43753 35.5145 5.11651 36.3564L5.11379 36.3585L7.97795 39.9084" stroke="black" stroke-width="2" stroke-linecap="round" stroke-linejoin="round"/>
<path d="M16.5044 50.4765L18.0148 52.3485L24.1254 44.7749" stroke="black" stroke-width="2" stroke-linecap="round" stroke-linejoin="round"/>
<path d="M2.08496 25.2905C2.17693 21.699 3.22528 18.1971 5.12189 15.1459C5.48414 20.0571 7.80688 20.2419 9.13912 20.2419C10.1343 20.2419 11.3768 18.3888 11.5068 16.3415C11.7849 13.9721 12.9044 11.7814 14.6616 10.1679C14.9101 10.292 15.1836 10.3578 15.4614 10.3606C16.5804 10.3606 18.3819 9.31553 16.9033 1.48584C16.9033 1.48584 27.8917 7.87859 27.4783 18.4637C27.4825 18.8311 27.6324 19.1819 27.8951 19.4389C28.1579 19.6958 28.5119 19.8379 28.8794 19.8338H28.8965C28.9636 19.837 29.0309 19.8364 29.098 19.8319C29.7178 19.7889 30.3195 19.6045 30.857 19.2927C31.3944 18.9809 31.8532 18.55 32.1981 18.0333C33.351 20.0086 33.9337 22.2648 33.8815 24.5513" stroke="black" stroke-width="2" stroke-linecap="round" stroke-linejoin="round"/>
<path d="M14.5601 46.7238C14.9832 46.2154 15.2844 45.6169 15.4404 44.9741C15.5965 44.3314 15.6034 43.6614 15.4606 43.0156C15.2236 41.1489 13.7518 38.3111 11.8388 37.8938C11.3667 37.7909 12.5291 40.2023 11.5196 41.9317C10.4245 43.8081 9.51898 44.7512 10.0286 46.6775C10.5523 48.6561 13.6689 50.3566 13.7955 49.8057C13.8114 49.6275 13.7951 49.448 13.7474 49.2756C13.7014 48.8173 13.7498 48.3545 13.8896 47.9156C14.0294 47.4767 14.2576 47.0711 14.5601 46.7238" stroke="black" stroke-width="2" stroke-miterlimit="10"/>
<path d="M27.9391 29.2634C28.5218 29.0447 27.4149 32.0068 28.9573 33.7285C30.6304 35.5963 31.9217 36.4583 31.5683 38.7329C31.2054 41.0694 27.5135 43.6601 27.2694 43.069C27.2221 42.8704 27.2155 42.6644 27.2499 42.4632C27.2378 41.9359 27.1034 41.4186 26.8574 40.9521C26.6113 40.4856 26.2603 40.0826 25.8319 39.7748C25.2297 39.3166 24.7563 38.7104 24.4575 38.0151C24.1588 37.3198 24.0449 36.5591 24.127 35.8069C24.1437 33.659 25.5777 30.15 27.9391 29.2634Z" stroke="black" stroke-width="2" stroke-miterlimit="10"/>
</svg>
