<?xml version="1.0" encoding="utf-8"?>
<!-- Generator: Adobe Illustrator 16.0.4, SVG Export Plug-In . SVG Version: 6.00 Build 0)  -->
<!DOCTYPE svg PUBLIC "-//W3C//DTD SVG 1.1//EN" "http://www.w3.org/Graphics/SVG/1.1/DTD/svg11.dtd">
<svg version="1.1" id="Ebene_1" xmlns="http://www.w3.org/2000/svg" xmlns:xlink="http://www.w3.org/1999/xlink" x="0px" y="0px"
	 width="168px" height="142px" viewBox="0 0 168 142" enable-background="new 0 0 168 142" xml:space="preserve">
<g>
	<path fill="#1E3560" d="M79.41,30.27c3.457-3.688,9.244-3.861,12.963-0.375c3.684,3.451,3.891,9.244,0.436,12.932
		c-0.367,0.391-0.793,0.789-1.252,1.082c-0.15-1.213-0.701-2.404-1.668-3.311c-2.236-2.096-5.684-1.986-7.768,0.236
		c-0.812,0.867-1.305,1.934-1.445,3.045c-0.256-0.201-0.498-0.428-0.77-0.682C76.188,39.711,75.971,33.941,79.41,30.27
		 M154.537,46.068c-2.156,1.992-2.295,4.678-1.496,7.299l-13.758,16.506c0.012-0.52,0.008-4.828-0.006-5.395
		c-9.504,2.014-34.361,26.055-54.346,26.055c-20.152,0-45.959-24.072-55.863-26.055c-0.018,0.58-0.059,5.137-0.07,5.207
		L15.646,57.412c0.594-2.678-0.311-5.59-2.615-7.408c-3.215-2.535-7.857-1.99-10.389,1.219C0.111,54.42,0.66,59.064,3.865,61.596
		c2.309,1.82,5.346,2.025,7.814,0.826l20.574,25.586c7.635,22.611,27.965,38.82,51.916,38.82c23.891,0,44.178-16.121,51.855-38.641
		l20.814-29.844c2.553,1.008,5.568,0.572,7.729-1.422c3.002-2.768,3.189-7.445,0.422-10.438
		C162.223,43.482,157.549,43.295,154.537,46.068 M66.613,128.088c2.762,7.062,9.533,12.072,17.514,12.072
		c7.963,0,14.746-5.01,17.508-12.072c-5.51,1.83-11.385,2.857-17.514,2.857C78,130.945,72.123,129.918,66.613,128.088
		 M133.617,11.521c-2.012,2.65-5.324,3.504-8.174,1.955l-9.072,13.914c9.775,8.523,15.963,21.014,15.963,34.934
		c0,0-26.18,6.801-46.463,6.801c-20.275,0-48.234-6.801-48.234-6.801c0-13.066,5.453-24.877,14.217-33.328L42.756,14.5
		c-2.844,1.471-6.232,0.588-8.18-2.092c-2.162-2.938-1.512-7.043,1.451-9.162c2.955-2.125,7.086-1.477,9.232,1.457
		c1.965,2.664,1.773,6.154-0.535,8.408l10.906,12.615c7.951-6.182,17.957-9.879,28.834-9.879c0.17,0,0.871,0,1.086,0
		c9.973,0,19.215,3.119,26.811,8.414l11.076-12.316c-1.959-1.781-2.008-6.176-0.389-8.311c2.217-2.92,6.363-3.5,9.279-1.303
		C135.232,4.514,135.812,8.623,133.617,11.521z M103.781,40.51c0-9.633-7.875-17.422-17.576-17.422
		c-9.695,0-17.529,7.789-17.529,17.422c0,9.627,7.875,17.457,17.529,17.457C95.906,57.967,103.781,50.137,103.781,40.51z"/>
</g>
</svg>
