<svg width="21" height="18" viewBox="0 0 21 18" fill="none" xmlns="http://www.w3.org/2000/svg">
<path fill-rule="evenodd" clip-rule="evenodd" d="M19.118 10.1109C19.7156 10.1109 20.243 9.61523 20.243 8.98242C20.2816 8.66601 20.1375 8.38476 19.8562 8.13867L10.8809 0.246586C10.6664 0.0704531 10.3852 0 10.1391 0C9.89296 0 9.61171 0.0352266 9.36562 0.281812L0.351914 8.13867C0.105609 8.38476 0 8.66601 0 8.98242C0 9.61523 0.49289 10.1109 1.12676 10.1109H2.25316V12.5578C2.25105 12.5894 2.25 12.6246 2.25 12.6562V16.5937C2.25 17.3707 2.87965 18 3.65625 18H4.21875C4.26094 18 4.30312 17.9965 4.34531 17.993C4.39804 17.9965 4.45078 18 4.50351 18H6.46875C6.48421 18 6.49961 17.9997 6.51495 17.9992H13.735C13.7504 17.9997 13.7658 18 13.7812 18H15.7676C15.7846 18 15.8016 17.9962 15.8187 17.9924C15.8509 17.9852 15.883 17.9781 15.9152 17.9965C15.9405 17.9781 15.9658 17.9852 15.9911 17.9924C16.0045 17.9962 16.0179 18 16.0312 18H16.5937C17.3707 18 18 17.3707 18 16.5937V16.0242C18.0105 15.9293 18.0176 15.8379 18.0176 15.7394L17.993 10.1109H19.118Z" fill="#767676"/>
<path d="M13.375 9.78125C13.5156 9.78125 13.6562 9.85156 13.7617 9.95703C13.8672 10.0625 13.9375 10.2031 13.9375 10.3438V10.9062C13.9375 11.0645 13.8672 11.2051 13.7617 11.3105C13.6562 11.416 13.5156 11.4688 13.375 11.4688H10.8438V14C10.8438 14.1582 10.7734 14.2988 10.668 14.4043C10.5625 14.5098 10.4219 14.5625 10.2812 14.5625H9.71875C9.56055 14.5625 9.41992 14.5098 9.31445 14.4043C9.20898 14.2988 9.15625 14.1582 9.15625 14V11.4688H6.625C6.4668 11.4688 6.32617 11.416 6.2207 11.3105C6.11523 11.2051 6.0625 11.0645 6.0625 10.9062V10.3438C6.0625 10.2031 6.11523 10.0625 6.2207 9.95703C6.32617 9.85156 6.4668 9.78125 6.625 9.78125H9.15625V7.25C9.15625 7.10938 9.20898 6.96875 9.31445 6.86328C9.41992 6.75781 9.56055 6.6875 9.71875 6.6875H10.2812C10.4219 6.6875 10.5625 6.75781 10.668 6.86328C10.7734 6.96875 10.8438 7.10938 10.8438 7.25V9.78125H13.375Z" fill="white"/>
</svg>
