<svg width="175" height="24" viewBox="0 0 175 24" fill="none" xmlns="http://www.w3.org/2000/svg">
<path d="M2.03485 1.90048L2.09244 5.01035C3.38502 2.68114 5.24071 1.51654 7.6595 1.51654C10.3342 1.51654 12.0619 2.78993 12.8426 5.33669C13.4953 4.06971 14.3336 3.11627 15.3574 2.47638C16.394 1.83649 17.5202 1.51654 18.736 1.51654C22.473 1.51654 24.3863 3.92253 24.4758 8.73452V22.6713H22.345V8.86889C22.3194 7.0772 21.9867 5.74622 21.3468 4.87597C20.7069 3.99292 19.6575 3.5514 18.1985 3.5514C16.8803 3.57699 15.7669 4.08891 14.8583 5.08714C13.9496 6.08537 13.4313 7.33955 13.3033 8.8497V22.6713H11.1533V8.92648C11.1533 7.10919 10.8142 5.75902 10.1359 4.87597C9.47039 3.99292 8.42737 3.5514 7.00681 3.5514C5.84221 3.5514 4.83118 3.95453 3.97372 4.76079C3.12907 5.56705 2.51477 6.71886 2.13084 8.2162V22.6713H0V1.90048H2.03485Z" fill="#003264"/>
<path d="M36.9153 23.0553C34.4709 23.0553 32.5577 22.2554 31.1755 20.6557C29.7933 19.056 29.0895 16.7779 29.0639 13.8217V11.2877C29.0639 8.2418 29.7293 5.855 31.0603 4.1273C32.3913 2.38679 34.2214 1.51654 36.5506 1.51654C38.803 1.51654 40.5179 2.25242 41.6953 3.72417C42.8855 5.19592 43.4934 7.44833 43.519 10.4814V12.4779H31.1755V13.6489C31.1755 16.0293 31.681 17.8658 32.692 19.1583C33.7159 20.4509 35.1556 21.0972 37.0113 21.0972C39.059 21.0972 40.7163 20.3485 41.9833 18.8512L43.0967 20.2718C41.7401 22.1274 39.6797 23.0553 36.9153 23.0553ZM36.5506 3.513C34.8741 3.513 33.5815 4.1081 32.6728 5.2983C31.777 6.4757 31.2843 8.20341 31.1947 10.4814H41.3882V9.92471C41.2858 5.65024 39.6733 3.513 36.5506 3.513Z" fill="#003264"/>
<path d="M50.0267 1.90048L50.0843 5.01035C51.3769 2.68114 53.2326 1.51654 55.6513 1.51654C58.3261 1.51654 60.0538 2.78993 60.8345 5.33669C61.4872 4.06971 62.3254 3.11627 63.3492 2.47638C64.3859 1.83649 65.5121 1.51654 66.7279 1.51654C70.4648 1.51654 72.3781 3.92253 72.4677 8.73452V22.6713H70.3368V8.86889C70.3112 7.0772 69.9785 5.74622 69.3386 4.87597C68.6987 3.99292 67.6493 3.5514 66.1904 3.5514C64.8722 3.57699 63.7588 4.08891 62.8501 5.08714C61.9415 6.08537 61.4232 7.33955 61.2952 8.8497V22.6713H59.1451V8.92648C59.1451 7.10919 58.806 5.75902 58.1277 4.87597C57.4622 3.99292 56.4192 3.5514 54.9987 3.5514C53.834 3.5514 52.823 3.95453 51.9656 4.76079C51.1209 5.56705 50.5066 6.71886 50.1227 8.2162V22.6713H47.9918V1.90048H50.0267Z" fill="#003264"/>
<path d="M77.2477 11.2301C77.2477 8.2354 77.926 5.8678 79.2825 4.1273C80.6391 2.38679 82.4884 1.51654 84.8304 1.51654C87.1852 1.51654 89.0345 2.374 90.3782 4.08891C91.7348 5.80381 92.4195 8.16501 92.4323 11.1725V13.3801C92.4323 16.426 91.7476 18.8 90.3782 20.5021C89.0217 22.2042 87.1852 23.0553 84.8688 23.0553C82.5524 23.0553 80.7159 22.2234 79.3593 20.5597C78.0027 18.896 77.2989 16.6052 77.2477 13.6873V11.2301ZM79.3977 13.3801C79.3977 15.7733 79.8776 17.6546 80.8375 19.024C81.8101 20.3933 83.1539 21.078 84.8688 21.078C86.6221 21.078 87.9594 20.4189 88.8809 19.1008C89.8151 17.7826 90.2887 15.8949 90.3015 13.4377V11.2301C90.3015 8.8369 89.8151 6.95562 88.8425 5.58625C87.8699 4.20409 86.5325 3.513 84.8304 3.513C83.1795 3.513 81.8677 4.18489 80.8951 5.52866C79.9224 6.87243 79.4233 8.72172 79.3977 11.0765V13.3801Z" fill="#003264"/>
<path d="M111.859 13.1498L113.76 0.307148H118.943L114.835 22.6713H109.421L107.118 10.731L104.891 22.6713H99.4775L95.3502 0.307148H100.553L102.434 13.2266L104.757 0.307148H109.517L111.859 13.1498Z" fill="#003264"/>
<path d="M127.274 22.6713H121.861V0.307148H127.274V22.6713Z" fill="#003264"/>
<path d="M138.255 14.7623L136.508 16.7588V22.6713H131.075V0.307148H136.508V9.15684L137.756 7.0836L141.538 0.307148H148.295L141.864 10.2319L148.352 22.6713H141.96L138.255 14.7623Z" fill="#003264"/>
<path d="M155.686 22.6713H150.272V0.307148H155.686V22.6713Z" fill="#003264"/>
<path d="M169.622 16.6628C169.622 15.9333 169.405 15.3446 168.97 14.8967C168.547 14.4487 167.747 14.0392 166.57 13.6681C163.947 12.9514 162.129 12.0747 161.118 11.0381C160.107 9.9887 159.602 8.51055 159.602 6.60368C159.602 4.684 160.28 3.10347 161.637 1.86208C162.993 0.620695 164.753 0 166.916 0C169.334 0 171.26 0.633492 172.694 1.90048C174.14 3.15466 174.863 4.85038 174.863 6.98761H169.45C169.45 6.14296 169.219 5.45827 168.759 4.93356C168.311 4.40885 167.703 4.1465 166.935 4.1465C166.257 4.1465 165.725 4.35766 165.342 4.77999C164.958 5.20232 164.766 5.73982 164.766 6.39251C164.766 7.00681 164.977 7.51232 165.399 7.90906C165.834 8.30579 166.608 8.70252 167.722 9.09925C170.23 9.73915 172.035 10.6286 173.135 11.7676C174.236 12.9066 174.786 14.4807 174.786 16.49C174.786 18.4993 174.121 20.0862 172.79 21.2508C171.459 22.4026 169.616 22.9785 167.261 22.9785C166.135 22.9785 165.041 22.8121 163.979 22.4794C162.929 22.1466 162.027 21.6475 161.272 20.982C159.736 19.6511 158.968 17.8338 158.968 15.5302H164.42C164.42 16.7715 164.65 17.6418 165.111 18.1409C165.572 18.6272 166.385 18.8704 167.549 18.8704C168.931 18.8704 169.622 18.1345 169.622 16.6628Z" fill="#003264"/>
</svg>
