<?xml version="1.0" standalone="no"?>
<!DOCTYPE svg PUBLIC "-//W3C//DTD SVG 20010904//EN"
 "http://www.w3.org/TR/2001/REC-SVG-20010904/DTD/svg10.dtd">
<svg version="1.0" xmlns="http://www.w3.org/2000/svg"
 width="262.000000pt" height="262.000000pt" viewBox="0 0 262.000000 262.000000"
 preserveAspectRatio="xMidYMid meet">
<metadata>
Created by potrace 1.11, written by Peter Selinger 2001-2013
</metadata>
<g transform="translate(0.000000,262.000000) scale(0.100000,-0.100000)"
fill="#000000" stroke="none">
<path d="M233 2588 c-28 -13 -47 -31 -59 -56 -19 -40 -28 -92 -16 -92 4 0 8
-10 9 -22 1 -12 18 -37 38 -55 33 -30 39 -32 100 -29 49 2 65 -1 65 -11 0 -7
5 -13 10 -13 6 0 10 -5 10 -11 0 -7 8 -18 18 -26 9 -8 11 -11 3 -7 -8 4 1 -15
20 -42 19 -27 37 -51 42 -52 4 -2 5 -8 1 -13 -3 -5 0 -9 5 -9 6 0 11 -7 11
-15 0 -8 5 -15 10 -15 6 0 10 -7 10 -15 0 -7 7 -18 16 -23 9 -5 15 -12 15 -16
-1 -3 6 -20 15 -37 8 -17 11 -28 6 -25 -6 3 -13 -3 -17 -14 -3 -11 -10 -19
-14 -17 -4 1 -29 -19 -55 -45 -26 -27 -43 -48 -39 -48 4 0 0 -5 -10 -11 -9 -6
-15 -15 -11 -20 3 -5 2 -8 -3 -7 -4 2 -9 0 -11 -4 -1 -4 -16 -22 -32 -40 -17
-18 -30 -38 -30 -44 0 -6 -9 -23 -21 -38 -11 -15 -22 -33 -23 -40 -1 -8 -8
-22 -16 -32 -8 -9 -14 -19 -12 -21 1 -2 -4 -16 -12 -32 -9 -16 -12 -31 -9 -35
4 -3 2 -6 -4 -6 -5 0 -10 -7 -11 -15 -1 -8 -3 -22 -4 -30 -1 -8 -5 -15 -10
-15 -5 0 -7 -4 -3 -9 3 -5 1 -12 -4 -16 -5 -3 -8 -14 -6 -25 2 -11 1 -20 -3
-20 -8 0 -13 -26 -15 -72 -1 -16 -4 -28 -7 -28 -11 0 -15 -213 -6 -290 12
-107 18 -145 25 -150 4 -3 6 -12 6 -20 -1 -8 3 -21 8 -27 5 -7 7 -13 3 -13 -4
0 0 -13 9 -30 9 -16 13 -30 9 -30 -4 0 -1 -7 6 -15 7 -8 9 -15 6 -15 -4 0 3
-14 15 -32 13 -17 17 -28 10 -24 -10 6 -10 3 1 -13 7 -12 16 -21 21 -21 4 0 5
-5 2 -10 -3 -6 -1 -10 4 -10 6 0 10 -3 10 -8 -4 -21 4 -35 29 -59 15 -15 20
-22 13 -18 -16 9 14 -36 48 -71 11 -12 17 -25 14 -28 -4 -3 1 -6 10 -6 9 0 19
-5 23 -12 5 -7 2 -9 -7 -4 -8 4 5 -11 29 -33 23 -23 42 -47 42 -53 0 -6 3 -8
6 -5 4 3 16 -5 26 -19 11 -14 22 -23 25 -21 2 3 14 -5 27 -17 36 -34 66 -56
75 -56 5 0 14 -7 21 -15 7 -9 15 -13 18 -10 3 2 11 -3 19 -13 10 -11 12 -12 8
-2 -5 13 -4 13 7 0 14 -17 89 -55 100 -52 5 1 8 -3 8 -9 0 -5 4 -7 10 -4 5 3
10 2 10 -3 0 -9 65 -28 82 -24 5 1 8 -2 8 -6 0 -8 7 -10 50 -14 11 -1 20 -6
20 -11 0 -5 9 -7 20 -4 11 3 22 1 25 -3 3 -5 13 -9 23 -9 9 0 46 -2 82 -6 82
-9 158 -9 235 -1 33 4 70 7 83 8 12 1 22 5 22 8 0 3 8 6 18 7 27 3 67 10 70
13 1 1 5 3 10 5 4 1 21 5 37 10 17 4 36 12 43 18 6 5 12 6 12 1 0 -4 5 -3 12
4 7 7 20 12 31 12 10 0 15 4 12 10 -3 6 1 7 9 4 10 -4 16 -1 16 7 0 7 3 9 6 6
4 -4 20 3 35 14 16 11 29 17 29 14 0 -4 9 3 21 16 11 13 17 17 13 9 -8 -15 33
14 48 35 5 6 8 6 8 1 0 -6 9 -1 19 10 10 10 34 30 52 44 50 39 66 52 50 44 -9
-5 -12 -3 -7 4 4 7 12 12 19 12 13 0 57 48 57 62 0 5 5 6 10 3 6 -3 10 0 10 7
0 7 9 19 20 26 11 7 20 19 20 27 0 8 4 15 9 15 5 0 16 12 24 28 7 15 31 53 51
86 21 32 32 55 25 50 -8 -4 -4 5 9 20 12 16 19 32 16 37 -3 5 0 9 5 9 6 0 10
3 9 8 -1 4 4 21 11 37 7 17 14 38 16 48 2 9 6 21 9 25 7 11 22 81 32 152 9 57
8 291 -1 340 -4 25 -7 53 -7 62 0 10 -4 20 -9 23 -5 4 -7 11 -4 16 4 5 3 15
-2 22 -8 12 -13 32 -15 55 -1 6 -6 12 -11 12 -6 0 -8 3 -4 6 5 5 -4 31 -46
127 -7 15 -16 27 -20 27 -5 0 -5 5 -2 10 3 6 1 10 -6 10 -7 0 -9 3 -6 7 4 3
-1 12 -11 20 -9 8 -11 11 -4 8 11 -6 11 -3 1 13 -7 12 -17 18 -23 15 -5 -3 -6
-1 -3 4 4 6 -2 21 -13 33 -11 13 -20 26 -20 30 0 3 -19 26 -42 50 -24 24 -36
40 -29 35 10 -5 12 -4 7 3 -4 7 -14 12 -23 12 -9 0 -14 3 -10 6 3 3 -5 16 -19
29 -29 27 -31 56 -4 80 12 11 18 25 15 34 -3 8 -3 12 1 8 7 -7 35 30 70 93 10
19 24 39 31 45 7 5 13 17 15 25 6 28 48 61 66 52 16 -8 50 -8 82 0 53 14 101
85 95 144 -4 46 -55 121 -75 109 -5 -3 -10 -1 -10 5 0 7 -7 10 -15 7 -8 -4
-17 -2 -20 3 -3 5 -18 5 -34 0 -16 -4 -32 -6 -35 -2 -3 3 -6 0 -6 -6 0 -7 -5
-12 -12 -12 -18 0 -59 -52 -54 -67 3 -7 1 -13 -4 -13 -14 0 -3 -79 15 -106 9
-14 11 -25 5 -29 -6 -4 -7 -11 -4 -17 4 -6 3 -9 -2 -6 -5 3 -15 0 -22 -8 -7
-8 -11 -14 -8 -14 3 0 -10 -15 -29 -33 -19 -19 -32 -36 -29 -40 3 -3 -4 -8
-15 -12 -12 -3 -28 -19 -36 -34 -8 -16 -21 -31 -30 -35 -9 -3 -13 -11 -10 -16
4 -6 1 -9 -7 -8 -7 2 -12 -3 -10 -9 1 -7 -3 -13 -9 -13 -7 0 -18 -8 -25 -17
-9 -12 -13 -14 -14 -5 0 7 -4 10 -10 7 -5 -3 -10 -2 -10 3 0 5 -12 17 -26 27
-18 11 -24 13 -19 4 5 -8 -4 -2 -19 13 -16 15 -32 25 -37 22 -5 -3 -9 0 -9 6
0 11 -58 36 -72 32 -5 -1 -8 3 -8 9 0 5 -4 7 -10 4 -5 -3 -10 -1 -10 6 0 7 -3
10 -6 7 -3 -4 -17 0 -31 7 -15 8 -30 12 -35 9 -4 -3 -8 0 -8 6 0 7 -7 10 -15
6 -8 -3 -15 -1 -15 4 0 5 -9 7 -20 5 -11 -2 -20 0 -20 4 0 8 -31 15 -120 28
-54 8 -310 7 -355 -2 -22 -4 -48 -7 -57 -7 -10 1 -18 -2 -18 -6 0 -4 -10 -8
-23 -9 -12 0 -35 -7 -52 -14 -16 -7 -36 -11 -42 -10 -7 1 -13 -3 -13 -9 0 -6
-5 -8 -10 -5 -6 3 -22 -2 -38 -13 -15 -11 -33 -17 -39 -15 -7 3 -13 0 -13 -7
0 -6 -4 -8 -10 -5 -5 3 -10 1 -10 -5 0 -6 -4 -8 -10 -5 -5 3 -10 1 -10 -4 0
-6 -7 -11 -15 -11 -8 0 -15 -5 -15 -11 0 -5 -4 -8 -8 -5 -9 6 -65 -28 -58 -35
3 -3 -5 -6 -17 -7 -15 -1 -30 10 -46 34 -13 19 -37 46 -53 59 -15 13 -28 27
-28 31 0 4 -15 21 -32 37 -18 17 -26 26 -18 22 8 -5 -1 7 -20 27 -67 67 -70
73 -51 93 13 14 13 16 1 11 -8 -4 -7 -1 4 8 10 8 15 19 11 25 -3 6 -2 11 3 11
5 0 10 11 10 25 0 14 -5 25 -10 25 -5 0 -6 5 -3 10 4 6 -5 27 -20 46 -44 58
-107 73 -172 42z"/>
</g>
</svg>
