<svg width="122" height="68" viewBox="0 0 122 68" fill="none" xmlns="http://www.w3.org/2000/svg">
<path d="M42.8034 23.1838C42.9382 24.1431 42.7241 24.9207 42.1609 25.5166C41.5977 26.1125 40.703 26.4966 39.4768 26.669L38.6935 26.7791L38.4487 30.2157L37.4623 30.3543L38.063 21.6193L39.9778 21.3502C40.8056 21.2339 41.458 21.3295 41.9352 21.6372C42.4118 21.941 42.7012 22.4566 42.8034 23.1838ZM38.7543 25.9066L39.526 25.7982C40.3615 25.6807 40.9712 25.4156 41.3549 25.0027C41.7387 24.5898 41.8828 24.0429 41.7871 23.3621C41.7191 22.8786 41.5348 22.5495 41.2341 22.3748C40.9368 22.1957 40.5096 22.1453 39.9526 22.2235L39.0068 22.3565L38.7543 25.9066ZM46.5651 29.1934C45.8533 29.2934 45.2647 29.1611 44.7993 28.7966C44.3339 28.432 44.0487 27.8765 43.9438 27.1299C43.8416 26.4027 43.8868 25.6863 44.0796 24.9807C44.2756 24.2707 44.5855 23.6966 45.0091 23.2584C45.4327 22.8202 45.9307 22.5608 46.5032 22.4804C47.0951 22.3972 47.5581 22.4643 47.8924 22.6816C48.2261 22.895 48.4254 23.2319 48.4901 23.6922C48.5879 24.3885 48.3438 24.981 47.7576 25.4697C47.171 25.9545 46.28 26.2809 45.0847 26.4489L44.8932 26.4758L44.9353 26.9432C45.0065 27.45 45.1802 27.8299 45.4564 28.0829C45.7359 28.3316 46.1251 28.4209 46.6241 28.3508C46.8678 28.3165 47.1124 28.2466 47.358 28.1411C47.6074 28.0351 47.9105 27.8623 48.2673 27.6228L48.3864 28.47C48.0467 28.6913 47.7422 28.8544 47.4729 28.9593C47.2042 29.068 46.9016 29.1461 46.5651 29.1934ZM46.5618 23.3183C46.1634 23.3743 45.8137 23.6088 45.5128 24.0219C45.2158 24.4344 45.0198 24.9768 44.9249 25.6488L44.9946 25.6391C45.8765 25.5151 46.5355 25.3061 46.9715 25.0121C47.4108 24.7137 47.5997 24.3459 47.5383 23.9088C47.5095 23.7038 47.414 23.5437 47.2518 23.4284C47.0935 23.3126 46.8635 23.2759 46.5618 23.3183ZM53.0077 21.5662C53.2746 21.5287 53.5105 21.5232 53.7154 21.5496L53.6288 22.4493C53.4167 22.4279 53.2101 22.4313 53.009 22.4595C52.6569 22.509 52.3425 22.6715 52.0657 22.9471C51.7927 23.2222 51.5693 23.5829 51.3953 24.0295C51.2247 24.4716 51.1206 24.9517 51.083 25.4698L50.8715 28.4698L49.8967 28.6068L50.3607 22.0566L51.1672 21.9432L51.2051 23.1391L51.2631 23.1309C51.49 22.7243 51.6832 22.4289 51.8427 22.2447C52.0017 22.0567 52.1738 21.9063 52.3592 21.7935C52.5478 21.6762 52.764 21.6005 53.0077 21.5662ZM58.277 25.5888C58.3618 26.1923 58.2134 26.6944 57.8319 27.0951C57.4537 27.4915 56.8758 27.7443 56.0983 27.8536C55.4446 27.9454 54.8359 27.8949 54.2723 27.7019L54.1435 26.7851C54.4371 26.9095 54.7468 26.9942 55.0726 27.0392C55.3985 27.0841 55.6948 27.0878 55.9618 27.0503C56.4492 26.9818 56.803 26.8334 57.0234 26.6052C57.2438 26.377 57.3328 26.1121 57.2904 25.8103C57.2594 25.5898 57.1656 25.4137 57.009 25.2819C56.8524 25.15 56.5313 24.9841 56.0456 24.7841C55.5031 24.5724 55.1083 24.3459 54.8614 24.1044C54.6144 23.863 54.4649 23.5566 54.4127 23.1853C54.3377 22.6515 54.4727 22.1946 54.8177 21.8148C55.1622 21.4311 55.6535 21.1944 56.2918 21.1047C56.9533 21.0117 57.6116 21.0652 58.2669 21.265L58.0653 22.1039L57.72 22.0045C57.3059 21.8931 56.8687 21.8697 56.4084 21.9344C56.0487 21.985 55.7782 22.1098 55.5971 22.3088C55.4155 22.5039 55.3434 22.735 55.381 23.0019C55.4114 23.2185 55.5052 23.3947 55.6623 23.5304C55.8233 23.6655 56.1356 23.8248 56.5993 24.0081C57.0458 24.1821 57.3697 24.3397 57.571 24.481C57.7762 24.6218 57.9369 24.7826 58.053 24.9635C58.1686 25.1406 58.2433 25.349 58.277 25.5888ZM62.1861 20.3118C62.921 20.2085 63.532 20.3455 64.0189 20.7228C64.5053 21.0963 64.8021 21.664 64.9092 22.4261C65.0114 23.1533 64.9686 23.8595 64.7809 24.5446C64.5932 25.2297 64.2861 25.7818 63.8598 26.2006C63.4335 26.6195 62.9206 26.8711 62.321 26.9553C61.5783 27.0597 60.9654 26.923 60.4823 26.5451C59.9993 26.1673 59.7044 25.5993 59.5979 24.8411C59.4946 24.1061 59.5387 23.3958 59.7303 22.7101C59.9214 22.0206 60.2325 21.47 60.6638 21.0583C61.0946 20.6427 61.602 20.3939 62.1861 20.3118ZM63.8808 22.4345C63.8183 21.9896 63.6459 21.647 63.3636 21.4066C63.0846 21.1618 62.7382 21.0685 62.3243 21.1267C61.9026 21.1859 61.5437 21.3823 61.2474 21.7159C60.9549 22.0489 60.7517 22.4837 60.6378 23.0204C60.5272 23.5527 60.5157 24.1303 60.6032 24.7531C60.6744 25.2598 60.8515 25.6353 61.1343 25.8796C61.4205 26.1194 61.7937 26.207 62.254 26.1423C62.6563 26.0858 62.9982 25.8937 63.2796 25.5662C63.5609 25.2387 63.7542 24.8033 63.8593 24.2599C63.9677 23.7122 63.9749 23.1037 63.8808 22.4345ZM70.263 25.7445L70.5574 21.6086C70.5782 21.1954 70.5778 20.9115 70.556 20.7567C70.5218 20.513 70.4247 20.3275 70.2648 20.2001C70.1087 20.0721 69.8798 20.0293 69.5781 20.0717C69.2338 20.1201 68.9136 20.2834 68.6174 20.5617C68.3251 20.8395 68.0834 21.2107 67.8923 21.6755C67.7051 22.1396 67.5906 22.6863 67.5489 23.3154L67.3502 26.1539L66.3754 26.2909L66.8394 19.7407L67.6459 19.6273L67.6838 20.8231L67.7418 20.815C68.0468 20.2909 68.3579 19.9079 68.675 19.6661C68.9954 19.4199 69.3413 19.2707 69.7126 19.2185C70.2039 19.1495 70.6098 19.2305 70.9302 19.4616C71.254 19.6883 71.4498 20.0434 71.5178 20.5269C71.5607 20.8325 71.5652 21.1869 71.5311 21.5901L71.2494 25.6059L70.263 25.7445ZM75.6891 18.3786C76.0449 18.3286 76.3757 18.3807 76.6814 18.535C76.9866 18.6854 77.2418 18.9296 77.4471 19.2676L77.5109 19.2586L77.7594 18.206L78.4963 18.1024L78.0381 24.6518L77.2664 24.7602L77.2468 23.5263L77.2004 23.5329C76.6325 24.516 75.9656 25.0614 75.1997 25.169C74.662 25.2446 74.2134 25.1124 73.854 24.7724C73.4946 24.4324 73.2681 23.9297 73.1746 23.2644C73.0616 22.4598 73.094 21.6939 73.2718 20.9667C73.4497 20.2396 73.753 19.6467 74.1816 19.1881C74.6102 18.7294 75.1127 18.4596 75.6891 18.3786ZM75.3996 24.3185C75.7749 24.2657 76.1231 24.0353 76.4445 23.6273C76.7653 23.2153 77.0015 22.7068 77.1531 22.1017C77.3042 21.4927 77.3392 20.9 77.2582 20.3237C77.2022 19.9252 77.0494 19.6233 76.7996 19.4177C76.5498 19.2122 76.2489 19.1342 75.8969 19.1837C75.4946 19.2402 75.1427 19.4593 74.8414 19.8409C74.5438 20.2219 74.3364 20.7106 74.219 21.307C74.1017 21.9033 74.0873 22.5168 74.1759 23.1473C74.2379 23.5883 74.3753 23.9062 74.5881 24.1012C74.8003 24.2922 75.0708 24.3647 75.3996 24.3185ZM80.9161 24.2473L79.9413 24.3843L80.5988 15.0851L81.5736 14.9481L80.9161 24.2473ZM83.9449 23.8216L82.9701 23.9586L83.4341 17.4084L84.4089 17.2714L83.9449 23.8216ZM83.4785 15.7454C83.448 15.5288 83.4852 15.3441 83.59 15.1913C83.6942 15.0347 83.8449 14.9425 84.0422 14.9148C84.3826 14.8669 84.5773 15.0171 84.6262 15.3652C84.6561 15.578 84.6156 15.7671 84.5047 15.9326C84.3978 16.0975 84.2592 16.1919 84.089 16.2158C83.9342 16.2376 83.8 16.2091 83.6864 16.1304C83.5723 16.0478 83.5029 15.9195 83.4785 15.7454ZM89.6561 21.1788C89.7409 21.7822 89.5926 22.2843 89.211 22.6851C88.8328 23.0814 88.255 23.3342 87.4774 23.4435C86.8237 23.5354 86.215 23.4848 85.6515 23.2919L85.5226 22.3751C85.8162 22.4995 86.1259 22.5842 86.4518 22.6291C86.7776 22.674 87.074 22.6777 87.3409 22.6402C87.8283 22.5717 88.1822 22.4234 88.4026 22.1952C88.6229 21.967 88.7119 21.702 88.6695 21.4003C88.6385 21.1798 88.5447 21.0036 88.3882 20.8718C88.2316 20.74 87.9104 20.5741 87.4247 20.3741C86.8822 20.1624 86.4874 19.9358 86.2405 19.6944C85.9936 19.453 85.844 19.1466 85.7918 18.7752C85.7168 18.2414 85.8518 17.7846 86.1968 17.4048C86.5413 17.0211 87.0327 16.7843 87.6709 16.6946C88.3324 16.6017 88.9908 16.6551 89.646 16.8549L89.4444 17.6939L89.0991 17.5945C88.685 17.4831 88.2479 17.4597 87.7875 17.5244C87.4278 17.5749 87.1574 17.6997 86.9763 17.8987C86.7946 18.0939 86.7226 18.3249 86.7601 18.5918C86.7905 18.8084 86.8843 18.9846 87.0414 19.1203C87.2024 19.2555 87.5148 19.4147 87.9784 19.5981C88.4249 19.772 88.7488 19.9296 88.9501 20.071C89.1553 20.2117 89.316 20.3726 89.4321 20.5535C89.5477 20.7305 89.6224 20.939 89.6561 21.1788ZM92.0566 22.6816L91.0818 22.8186L91.5458 16.2684L92.5206 16.1314L92.0566 22.6816ZM91.5902 14.6054C91.5597 14.3888 91.5969 14.2041 91.7016 14.0513C91.8059 13.8947 91.9566 13.8025 92.1539 13.7747C92.4943 13.7269 92.6889 13.8771 92.7379 14.2252C92.7678 14.4379 92.7273 14.6271 92.6164 14.7925C92.5094 14.9575 92.3708 15.0519 92.2006 15.0758C92.0459 15.0976 91.9117 15.0691 91.7981 14.9904C91.684 14.9078 91.6146 14.7795 91.5902 14.6054ZM96.6277 22.1575C95.916 22.2575 95.3274 22.1253 94.862 21.7607C94.3966 21.3962 94.1114 20.8406 94.0065 20.094C93.9043 19.3668 93.9495 18.6504 94.1423 17.9448C94.3383 17.2349 94.6482 16.6608 95.0718 16.2226C95.4954 15.7843 95.9934 15.525 96.5659 15.4445C97.1578 15.3614 97.6208 15.4284 97.9551 15.6457C98.2888 15.8592 98.4881 16.1961 98.5527 16.6564C98.6506 17.3527 98.4065 17.9451 97.8203 18.4338C97.2337 18.9186 96.3427 19.245 95.1474 19.413L94.9559 19.4399L94.9979 19.9074C95.0692 20.4141 95.2429 20.794 95.5191 21.0471C95.7986 21.2958 96.1878 21.385 96.6868 21.3149C96.9305 21.2807 97.1751 21.2108 97.4207 21.1053C97.67 20.9992 97.9732 20.8265 98.33 20.587L98.4491 21.4341C98.1094 21.6554 97.8049 21.8185 97.5356 21.9234C97.2669 22.0322 96.9643 22.1102 96.6277 22.1575ZM96.6245 16.2824C96.2261 16.3384 95.8764 16.573 95.5755 16.986C95.2785 17.3986 95.0825 17.9409 94.9876 18.613L95.0573 18.6032C95.9392 18.4793 96.5982 18.2703 97.0342 17.9763C97.4735 17.6779 97.6624 17.3101 97.601 16.873C97.5722 16.668 97.4767 16.5078 97.3145 16.3925C97.1562 16.2767 96.9262 16.24 96.6245 16.2824ZM103.07 14.5304C103.337 14.4929 103.573 14.4873 103.778 14.5138L103.691 15.4135C103.479 15.392 103.273 15.3954 103.072 15.4237C102.72 15.4731 102.405 15.6357 102.128 15.9113C101.855 16.1863 101.632 16.5471 101.458 16.9936C101.287 17.4357 101.183 17.9158 101.146 18.4339L100.934 21.4339L99.9594 21.5709L100.423 15.0207L101.23 14.9074L101.268 16.1032L101.326 16.0951C101.553 15.6884 101.746 15.393 101.905 15.2089C102.064 15.0209 102.237 14.8705 102.422 14.7576C102.61 14.6404 102.827 14.5646 103.07 14.5304ZM107.2 20.6717C106.488 20.7718 105.899 20.6395 105.434 20.2749C104.968 19.9104 104.683 19.3548 104.578 18.6083C104.476 17.881 104.521 17.1646 104.714 16.4591C104.91 15.7491 105.22 15.175 105.644 14.7368C106.067 14.2986 106.565 14.0392 107.138 13.9588C107.73 13.8756 108.193 13.9426 108.527 14.16C108.861 14.3734 109.06 14.7103 109.125 15.1706C109.222 15.8669 108.978 16.4594 108.392 16.948C107.806 17.4328 106.915 17.7592 105.719 17.9272L105.528 17.9541L105.57 18.4216C105.641 18.9283 105.815 19.3082 106.091 19.5613C106.37 19.81 106.76 19.8993 107.259 19.8291C107.502 19.7949 107.747 19.725 107.993 19.6195C108.242 19.5134 108.545 19.3407 108.902 19.1012L109.021 19.9483C108.681 20.1696 108.377 20.3327 108.108 20.4376C107.839 20.5464 107.536 20.6244 107.2 20.6717ZM107.196 14.7966C106.798 14.8526 106.448 15.0872 106.147 15.5003C105.85 15.9128 105.654 16.4551 105.56 17.1272L105.629 17.1174C106.511 16.9935 107.17 16.7845 107.606 16.4905C108.045 16.1921 108.234 15.8243 108.173 15.3872C108.144 15.1822 108.049 15.022 107.886 14.9068C107.728 14.7909 107.498 14.7542 107.196 14.7966ZM41.4326 35.3228C42.183 35.2173 42.7782 35.5084 43.218 36.1961L43.276 36.1879C43.2575 35.5791 43.2701 35.0369 43.3137 34.5614L43.4743 32.4205L44.4375 32.2852L43.7916 41.5827L42.9851 41.6961L42.9423 40.4655L42.8959 40.472C42.5732 41.0104 42.2557 41.4041 41.9436 41.6531C41.6315 41.9021 41.2936 42.0522 40.93 42.1033C40.3923 42.1788 39.9459 42.0483 39.5909 41.7116C39.2359 41.3749 39.0111 40.87 38.9166 40.1969C38.8002 39.3691 38.8329 38.5914 39.0147 37.8637C39.1964 37.136 39.4969 36.5514 39.9161 36.1099C40.3391 35.6678 40.8446 35.4054 41.4326 35.3228ZM41.1416 41.2511C41.5052 41.2 41.8551 40.9674 42.1914 40.5532C42.5271 40.1353 42.7677 39.6301 42.9132 39.0376C43.0621 38.4408 43.0955 37.8503 43.0134 37.2662C42.953 36.8368 42.8027 36.5247 42.5622 36.3297C42.3218 36.1347 42.0024 36.0652 41.604 36.1212C41.2133 36.1761 40.8722 36.3877 40.5808 36.7561C40.2927 37.12 40.087 37.6065 39.9635 38.2156C39.8433 38.8202 39.8281 39.4416 39.9178 40.0799C40.0412 40.958 40.4491 41.3484 41.1416 41.2511ZM48.3628 41.0586C47.651 41.1587 47.0624 41.0264 46.597 40.6619C46.1316 40.2973 45.8464 39.7417 45.7415 38.9952C45.6393 38.2679 45.6846 37.5515 45.8773 36.846C46.0734 36.136 46.3832 35.5619 46.8068 35.1237C47.2304 34.6855 47.7285 34.4261 48.301 34.3457C48.8928 34.2625 49.3559 34.3296 49.6901 34.5469C50.0239 34.7603 50.2231 35.0972 50.2878 35.5575C50.3856 36.2538 50.1415 36.8463 49.5554 37.3349C48.9687 37.8197 48.0777 38.1461 46.8824 38.3141L46.691 38.341L46.733 38.8085C46.8042 39.3152 46.9779 39.6951 47.2541 39.9482C47.5336 40.1969 47.9229 40.2862 48.4219 40.216C48.6656 40.1818 48.9102 40.1119 49.1557 40.0064C49.4051 39.9004 49.7082 39.7276 50.0651 39.4881L50.1841 40.3352C49.8444 40.5565 49.5399 40.7196 49.2707 40.8245C49.002 40.9333 48.6993 41.0113 48.3628 41.0586ZM48.3595 35.1836C47.9611 35.2395 47.6115 35.4741 47.3105 35.8872C47.0135 36.2997 46.8175 36.842 46.7227 37.5141L46.7923 37.5043C47.6742 37.3804 48.3332 37.1714 48.7692 36.8774C49.2085 36.579 49.3974 36.2112 49.336 35.7741C49.3072 35.5691 49.2117 35.4089 49.0496 35.2937C48.8913 35.1779 48.6613 35.1411 48.3595 35.1836ZM52.6692 40.3351L51.6944 40.4721L52.1584 33.9219L53.1332 33.7849L52.6692 40.3351ZM52.2028 32.2589C52.1724 32.0423 52.2095 31.8576 52.3143 31.7048C52.4185 31.5481 52.5692 31.4559 52.7665 31.4282C53.1069 31.3804 53.3016 31.5305 53.3505 31.8787C53.3804 32.0914 53.3399 32.2805 53.2291 32.446C53.1221 32.6109 52.9835 32.7054 52.8133 32.7293C52.6585 32.751 52.5244 32.7226 52.4108 32.6438C52.2966 32.5613 52.2273 32.433 52.2028 32.2589ZM58.5992 39.5017L58.8937 35.3657C58.9145 34.9526 58.914 34.6686 58.8923 34.5139C58.858 34.2702 58.761 34.0846 58.601 33.9572C58.445 33.8293 58.2161 33.7865 57.9144 33.8289C57.5701 33.8773 57.2499 34.0406 56.9537 34.3189C56.6614 34.5967 56.4197 34.9679 56.2286 35.4326C56.0414 35.8968 55.9269 36.4434 55.8851 37.0725L55.6864 39.911L54.7117 40.048L55.1757 33.4978L55.9822 33.3845L56.0201 34.5803L56.0781 34.5721C56.3831 34.048 56.6942 33.6651 57.0113 33.4233C57.3317 33.1771 57.6776 33.0279 58.0489 32.9757C58.5402 32.9066 58.946 32.9877 59.2665 33.2187C59.5902 33.4454 59.7861 33.8005 59.854 34.2841C59.897 34.5897 59.9014 34.944 59.8674 35.3472L59.5856 39.363L58.5992 39.5017ZM64.8135 38.6283L65.4143 29.8933L66.4007 29.7546L65.8658 37.5692L69.1442 37.1085L69.0783 38.0289L64.8135 38.6283ZM72.8255 37.6206C72.1137 37.7207 71.5252 37.5884 71.0597 37.2238C70.5943 36.8593 70.3091 36.3037 70.2042 35.5572C70.102 34.8299 70.1473 34.1135 70.34 33.408C70.5361 32.698 70.8459 32.1239 71.2695 31.6857C71.6931 31.2475 72.1912 30.9881 72.7637 30.9077C73.3555 30.8245 73.8186 30.8915 74.1529 31.1089C74.4866 31.3223 74.6858 31.6592 74.7505 32.1195C74.8484 32.8158 74.6042 33.4083 74.0181 33.8969C73.4314 34.3817 72.5404 34.7081 71.3451 34.8761L71.1537 34.903L71.1957 35.3705C71.2669 35.8772 71.4406 36.2571 71.7168 36.5102C71.9963 36.7589 72.3856 36.8482 72.8846 36.778C73.1283 36.7438 73.3729 36.6739 73.6184 36.5684C73.8678 36.4623 74.1709 36.2896 74.5278 36.0501L74.6468 36.8972C74.3071 37.1185 74.0027 37.2816 73.7334 37.3865C73.4647 37.4953 73.162 37.5733 72.8255 37.6206ZM72.8223 31.7455C72.4238 31.8015 72.0742 32.0361 71.7733 32.4492C71.4762 32.8617 71.2803 33.404 71.1854 34.0761L71.255 34.0663C72.137 33.9424 72.7959 33.7334 73.2319 33.4394C73.6712 33.141 73.8602 32.7732 73.7987 32.3361C73.7699 32.1311 73.6744 31.9709 73.5123 31.8557C73.354 31.7398 73.124 31.7031 72.8223 31.7455ZM79.2681 29.9935C79.535 29.956 79.7709 29.9505 79.9758 29.9769L79.8892 30.8766C79.6772 30.8551 79.4705 30.8585 79.2694 30.8868C78.9174 30.9363 78.603 31.0988 78.3261 31.3744C78.0532 31.6494 77.8297 32.0102 77.6558 32.4567C77.4852 32.8988 77.3811 33.3789 77.3434 33.897L77.1319 36.8971L76.1571 37.0341L76.6211 30.4839L77.4277 30.3705L77.4656 31.5663L77.5236 31.5582C77.7504 31.1515 77.9436 30.8562 78.1032 30.672C78.2621 30.484 78.4343 30.3336 78.6196 30.2207C78.8082 30.1035 79.0244 30.0278 79.2681 29.9935ZM84.7562 35.8255L85.0507 31.6896C85.0715 31.2764 85.071 30.9925 85.0493 30.8378C85.015 30.5941 84.918 30.4085 84.758 30.2811C84.602 30.1531 84.3731 30.1103 84.0714 30.1527C83.7271 30.2011 83.4069 30.3645 83.1107 30.6428C82.8184 30.9205 82.5767 31.2918 82.3856 31.7565C82.1984 32.2207 82.0839 32.7673 82.0421 33.3964L81.8434 36.2349L80.8687 36.3719L81.3327 29.8217L82.1392 29.7084L82.1771 30.9042L82.2351 30.896C82.5401 30.3719 82.8512 29.9889 83.1683 29.7471C83.4887 29.5009 83.8346 29.3517 84.2059 29.2996C84.6972 29.2305 85.103 29.3115 85.4235 29.5426C85.7472 29.7693 85.9431 30.1244 86.011 30.6079C86.054 30.9135 86.0584 31.2679 86.0244 31.6711L85.7426 35.6869L84.7562 35.8255ZM90.2558 35.171C89.544 35.271 88.9554 35.1387 88.49 34.7742C88.0246 34.4096 87.7394 33.8541 87.6345 33.1075C87.5323 32.3803 87.5775 31.6639 87.7703 30.9583C87.9664 30.2483 88.2762 29.6742 88.6998 29.236C89.1234 28.7978 89.6214 28.5384 90.1939 28.458C90.7858 28.3748 91.2488 28.4419 91.5831 28.6592C91.9169 28.8726 92.1161 29.2095 92.1808 29.6698C92.2786 30.3661 92.0345 30.9586 91.4483 31.4473C90.8617 31.9321 89.9707 32.2585 88.7754 32.4265L88.5839 32.4534L88.626 32.9208C88.6972 33.4276 88.8709 33.8075 89.1471 34.0606C89.4266 34.3092 89.8158 34.3985 90.3149 34.3284C90.5586 34.2941 90.8032 34.2242 91.0487 34.1187C91.2981 34.0127 91.6012 33.8399 91.958 33.6004L92.0771 34.4476C91.7374 34.6689 91.4329 34.832 91.1637 34.9369C90.8949 35.0456 90.5923 35.1237 90.2558 35.171ZM90.2525 29.2959C89.8541 29.3519 89.5044 29.5864 89.2035 29.9995C88.9065 30.412 88.7105 30.9544 88.6156 31.6264L88.6853 31.6167C89.5672 31.4927 90.2262 31.2837 90.6622 30.9897C91.1015 30.6913 91.2904 30.3235 91.229 29.8864C91.2002 29.6814 91.1047 29.5213 90.9425 29.406C90.7843 29.2902 90.5543 29.2535 90.2525 29.2959ZM97.475 34.038L97.7694 29.9021C97.7903 29.4889 97.7898 29.205 97.7681 29.0503C97.7338 28.8066 97.6367 28.621 97.4768 28.4936C97.3208 28.3656 97.0919 28.3228 96.7901 28.3652C96.4459 28.4136 96.1256 28.577 95.8295 28.8553C95.5372 29.133 95.2955 29.5043 95.1044 29.969C94.9171 30.4332 94.8027 30.9798 94.7609 31.6089L94.5622 34.4474L93.5874 34.5844L94.0514 28.0342L94.8579 27.9208L94.8958 29.1167L94.9538 29.1085C95.2589 28.5844 95.5699 28.2014 95.887 27.9596C96.2074 27.7134 96.5533 27.5642 96.9247 27.512C97.4159 27.443 97.8218 27.524 98.1422 27.7551C98.466 27.9818 98.6618 28.3369 98.7298 28.8204C98.7727 29.126 98.7772 29.4804 98.7431 29.8836L98.4614 33.8994L97.475 34.038ZM102.132 24.733L101.405 31.1011L100.773 31.19C100.795 29.9758 100.848 27.8798 100.93 24.9018L102.132 24.733ZM100.289 33.181C100.248 32.887 100.291 32.6443 100.418 32.4529C100.549 32.2609 100.746 32.1465 101.009 32.1095C101.183 32.0851 101.331 32.1194 101.455 32.2125C101.578 32.3017 101.654 32.4507 101.683 32.6596C101.72 32.9226 101.676 33.1557 101.551 33.3587C101.426 33.5617 101.235 33.6811 100.98 33.717C100.791 33.7437 100.634 33.7104 100.51 33.6173C100.391 33.5237 100.317 33.3783 100.289 33.181Z" fill="#003264"/>
<path d="M29.528 35.7088C5.50126 39.1041 11.7634 64.9319 11.7634 64.9319" stroke="#003264" stroke-width="1.5" stroke-linecap="round"/>
<path d="M20.1752 55.4789L11.5704 65.6282L1.12857 54.3948" stroke="#003264" stroke-width="1.5" stroke-linecap="round" stroke-linejoin="round"/>
</svg>
