<svg width="118" height="67" viewBox="0 0 118 67" fill="none" xmlns="http://www.w3.org/2000/svg">
<path d="M10.8266 20.6707C10.9614 21.63 10.7472 22.4076 10.184 23.0035C9.62086 23.5994 8.72616 23.9835 7.49993 24.1559L6.71661 24.266L6.47182 27.7026L5.48542 27.8412L6.08613 19.1062L8.00091 18.8371C8.82871 18.7208 9.48119 18.8164 9.95834 19.1241C10.4349 19.4279 10.7244 19.9435 10.8266 20.6707ZM6.77743 23.3935L7.54914 23.2851C8.38468 23.1676 8.99434 22.9025 9.37811 22.4896C9.76188 22.0767 9.90592 21.5298 9.81024 20.849C9.74228 20.3655 9.55797 20.0364 9.25729 19.8617C8.95994 19.6826 8.53275 19.6322 7.97572 19.7105L7.02994 19.8434L6.77743 23.3935ZM14.5882 26.6803C13.8765 26.7803 13.2879 26.648 12.8224 26.2835C12.357 25.9189 12.0719 25.3634 11.9669 24.6168C11.8647 23.8896 11.91 23.1732 12.1027 22.4676C12.2988 21.7576 12.6086 21.1835 13.0322 20.7453C13.4558 20.3071 13.9539 20.0477 14.5264 19.9673C15.1182 19.8841 15.5813 19.9512 15.9156 20.1685C16.2493 20.3819 16.4485 20.7188 16.5132 21.1791C16.6111 21.8754 16.3669 22.4679 15.7808 22.9566C15.1941 23.4414 14.3031 23.7678 13.1079 23.9358L12.9164 23.9627L12.9584 24.4301C13.0296 24.9369 13.2033 25.3168 13.4795 25.5699C13.759 25.8185 14.1483 25.9078 14.6473 25.8377C14.891 25.8034 15.1356 25.7335 15.3811 25.628C15.6305 25.522 15.9336 25.3492 16.2905 25.1097L16.4096 25.9569C16.0699 26.1782 15.7654 26.3413 15.4961 26.4462C15.2274 26.5549 14.9247 26.633 14.5882 26.6803ZM14.585 20.8052C14.1866 20.8612 13.8369 21.0957 13.536 21.5088C13.2389 21.9213 13.043 22.4637 12.9481 23.1358L13.0177 23.126C13.8997 23.002 14.5586 22.793 14.9946 22.499C15.4339 22.2006 15.6229 21.8328 15.5614 21.3957C15.5326 21.1907 15.4371 21.0306 15.275 20.9153C15.1167 20.7995 14.8867 20.7628 14.585 20.8052ZM21.0308 19.0532C21.2977 19.0156 21.5336 19.0101 21.7385 19.0365L21.652 19.9362C21.4399 19.9148 21.2333 19.9182 21.0321 19.9464C20.6801 19.9959 20.3657 20.1584 20.0888 20.434C19.8159 20.7091 19.5924 21.0698 19.4185 21.5164C19.2479 21.9585 19.1438 22.4386 19.1061 22.9567L18.8947 25.9567L17.9199 26.0937L18.3839 19.5435L19.1904 19.4301L19.2283 20.626L19.2863 20.6178C19.5132 20.2112 19.7064 19.9158 19.8659 19.7316C20.0248 19.5436 20.197 19.3932 20.3823 19.2804C20.571 19.1631 20.7871 19.0874 21.0308 19.0532ZM26.3001 23.0757C26.385 23.6792 26.2366 24.1813 25.8551 24.582C25.4769 24.9784 24.899 25.2312 24.1215 25.3405C23.4677 25.4323 22.8591 25.3818 22.2955 25.1888L22.1666 24.272C22.4603 24.3964 22.77 24.4811 23.0958 24.5261C23.4216 24.571 23.718 24.5747 23.9849 24.5372C24.4723 24.4687 24.8262 24.3203 25.0466 24.0921C25.267 23.8639 25.356 23.599 25.3136 23.2972C25.2826 23.0768 25.1888 22.9006 25.0322 22.7688C24.8756 22.6369 24.5545 22.471 24.0688 22.271C23.5262 22.0593 23.1315 21.8328 22.8845 21.5913C22.6376 21.3499 22.488 21.0435 22.4358 20.6722C22.3608 20.1384 22.4958 19.6816 22.8408 19.3017C23.1853 18.918 23.6767 18.6813 24.315 18.5916C24.9764 18.4986 25.6348 18.5521 26.2901 18.7519L26.0885 19.5908L25.7432 19.4914C25.3291 19.38 24.8919 19.3566 24.4316 19.4213C24.0718 19.4719 23.8014 19.5967 23.6203 19.7957C23.4387 19.9908 23.3666 20.2219 23.4041 20.4888C23.4346 20.7054 23.5283 20.8816 23.6855 21.0173C23.8465 21.1524 24.1588 21.3117 24.6224 21.495C25.0689 21.669 25.3929 21.8266 25.5942 21.9679C25.7994 22.1087 25.96 22.2695 26.0762 22.4504C26.1918 22.6275 26.2664 22.8359 26.3001 23.0757ZM30.2092 17.7987C30.9442 17.6954 31.5552 17.8324 32.0421 18.2097C32.5285 18.5832 32.8252 19.1509 32.9323 19.913C33.0345 20.6402 32.9918 21.3464 32.8041 22.0315C32.6163 22.7166 32.3093 23.2687 31.883 23.6875C31.4567 24.1064 30.9437 24.358 30.3441 24.4422C29.6014 24.5466 28.9886 24.4099 28.5055 24.032C28.0224 23.6542 27.7276 23.0862 27.621 22.328C27.5178 21.593 27.5619 20.8827 27.7535 20.197C27.9445 19.5075 28.2557 18.9569 28.687 18.5452C29.1177 18.1296 29.6251 17.8808 30.2092 17.7987ZM31.904 19.9214C31.8414 19.4766 31.669 19.1339 31.3867 18.8935C31.1078 18.6487 30.7613 18.5554 30.3474 18.6136C29.9258 18.6728 29.5668 18.8692 29.2705 19.2028C28.9781 19.5358 28.7749 19.9706 28.661 20.5073C28.5504 21.0396 28.5389 21.6172 28.6264 22.24C28.6976 22.7467 28.8746 23.1222 29.1575 23.3665C29.4436 23.6063 29.8169 23.6939 30.2772 23.6292C30.6795 23.5727 31.0213 23.3806 31.3027 23.0531C31.5841 22.7256 31.7773 22.2902 31.8824 21.7469C31.9908 21.1991 31.998 20.5906 31.904 19.9214ZM38.2861 23.2314L38.5806 19.0955C38.6014 18.6823 38.6009 18.3984 38.5792 18.2436C38.5449 17.9999 38.4478 17.8144 38.2879 17.687C38.1319 17.559 37.903 17.5162 37.6013 17.5586C37.257 17.607 36.9368 17.7703 36.6406 18.0486C36.3483 18.3264 36.1066 18.6976 35.9155 19.1624C35.7283 19.6265 35.6138 20.1732 35.572 20.8023L35.3733 23.6408L34.3985 23.7778L34.8625 17.2276L35.6691 17.1142L35.707 18.31L35.765 18.3019C36.07 17.7778 36.3811 17.3948 36.6982 17.153C37.0186 16.9068 37.3644 16.7576 37.7358 16.7054C38.2271 16.6364 38.6329 16.7174 38.9534 16.9485C39.2771 17.1752 39.473 17.5303 39.5409 18.0138C39.5839 18.3194 39.5883 18.6738 39.5543 19.077L39.2725 23.0928L38.2861 23.2314ZM43.7122 15.8655C44.0681 15.8155 44.3989 15.8676 44.7046 16.0219C45.0097 16.1723 45.265 16.4165 45.4702 16.7545L45.5341 16.7455L45.7826 15.6929L46.5195 15.5893L46.0613 22.1387L45.2896 22.2471L45.27 21.0132L45.2236 21.0198C44.6556 22.0029 43.9887 22.5483 43.2228 22.6559C42.6851 22.7315 42.2366 22.5993 41.8772 22.2593C41.5178 21.9193 41.2913 21.4166 41.1978 20.7513C41.0847 19.9467 41.1171 19.1808 41.295 18.4537C41.4729 17.7265 41.7761 17.1336 42.2047 16.675C42.6334 16.2163 43.1359 15.9465 43.7122 15.8655ZM43.4228 21.8054C43.798 21.7526 44.1463 21.5222 44.4676 21.1142C44.7884 20.7022 45.0246 20.1937 45.1763 19.5886C45.3274 18.9796 45.3624 18.3869 45.2814 17.8106C45.2254 17.4121 45.0725 17.1102 44.8227 16.9046C44.5729 16.6991 44.272 16.6211 43.92 16.6706C43.5177 16.7271 43.1659 16.9462 42.8645 17.3278C42.567 17.7088 42.3596 18.1975 42.2422 18.7939C42.1248 19.3902 42.1104 20.0037 42.1991 20.6342C42.261 21.0752 42.3984 21.3931 42.6112 21.5881C42.8235 21.7792 43.094 21.8516 43.4228 21.8054ZM48.9392 21.7342L47.9644 21.8712L48.622 12.572L49.5967 12.435L48.9392 21.7342ZM51.9681 21.3085L50.9933 21.4455L51.4573 14.8953L52.4321 14.7583L51.9681 21.3085ZM51.5016 13.2323C51.4712 13.0157 51.5084 12.831 51.6131 12.6782C51.7173 12.5216 51.8681 12.4294 52.0653 12.4017C52.4058 12.3538 52.6004 12.504 52.6493 12.8521C52.6792 13.0649 52.6388 13.254 52.5279 13.4195C52.4209 13.5844 52.2823 13.6788 52.1121 13.7027C51.9574 13.7245 51.8232 13.696 51.7096 13.6173C51.5954 13.5347 51.5261 13.4064 51.5016 13.2323ZM57.6793 18.6657C57.7641 19.2691 57.6157 19.7712 57.2342 20.172C56.856 20.5683 56.2781 20.8211 55.5006 20.9304C54.8469 21.0223 54.2382 20.9717 53.6746 20.7788L53.5458 19.862C53.8394 19.9864 54.1491 20.0711 54.4749 20.116C54.8008 20.1609 55.0971 20.1647 55.364 20.1271C55.8514 20.0586 56.2053 19.9103 56.4257 19.6821C56.6461 19.4539 56.7351 19.1889 56.6927 18.8872C56.6617 18.6667 56.5679 18.4905 56.4113 18.3587C56.2547 18.2269 55.9336 18.061 55.4479 17.861C54.9053 17.6493 54.5106 17.4227 54.2637 17.1813C54.0167 16.9399 53.8672 16.6335 53.815 16.2621C53.7399 15.7283 53.8749 15.2715 54.22 14.8917C54.5644 14.508 55.0558 14.2713 55.6941 14.1815C56.3555 14.0886 57.0139 14.142 57.6692 14.3418L57.4676 15.1808L57.1223 15.0814C56.7082 14.97 56.271 14.9466 55.8107 15.0113C55.4509 15.0618 55.1805 15.1866 54.9994 15.3856C54.8178 15.5808 54.7457 15.8118 54.7832 16.0787C54.8137 16.2954 54.9075 16.4715 55.0646 16.6072C55.2256 16.7424 55.5379 16.9016 56.0015 17.085C56.4481 17.2589 56.772 17.4165 56.9733 17.5579C57.1785 17.6986 57.3391 17.8595 57.4553 18.0404C57.5709 18.2174 57.6456 18.4259 57.6793 18.6657ZM60.0797 20.1685L59.105 20.3055L59.569 13.7553L60.5437 13.6183L60.0797 20.1685ZM59.6133 12.0923C59.5829 11.8757 59.62 11.691 59.7248 11.5382C59.829 11.3816 59.9798 11.2894 60.177 11.2616C60.5174 11.2138 60.7121 11.364 60.761 11.7121C60.7909 11.9249 60.7505 12.114 60.6396 12.2794C60.5326 12.4444 60.394 12.5388 60.2238 12.5627C60.0691 12.5845 59.9349 12.556 59.8213 12.4773C59.7071 12.3947 59.6378 12.2664 59.6133 12.0923ZM64.6509 19.6444C63.9391 19.7444 63.3506 19.6122 62.8851 19.2476C62.4197 18.8831 62.1345 18.3275 62.0296 17.5809C61.9274 16.8537 61.9727 16.1373 62.1654 15.4318C62.3615 14.7218 62.6713 14.1477 63.0949 13.7095C63.5185 13.2712 64.0166 13.0119 64.5891 12.9314C65.1809 12.8483 65.644 12.9153 65.9783 13.1326C66.312 13.3461 66.5112 13.683 66.5759 14.1433C66.6738 14.8396 66.4296 15.432 65.8435 15.9207C65.2568 16.4055 64.3658 16.7319 63.1706 16.8999L62.9791 16.9268L63.0211 17.3943C63.0923 17.901 63.266 18.2809 63.5422 18.534C63.8217 18.7827 64.211 18.8719 64.71 18.8018C64.9537 18.7676 65.1983 18.6977 65.4438 18.5922C65.6932 18.4861 65.9963 18.3134 66.3532 18.0739L66.4722 18.921C66.1326 19.1423 65.8281 19.3054 65.5588 19.4103C65.2901 19.5191 64.9874 19.5971 64.6509 19.6444ZM64.6477 13.7693C64.2492 13.8253 63.8996 14.0599 63.5987 14.473C63.3016 14.8855 63.1057 15.4278 63.0108 16.0999L63.0804 16.0901C63.9624 15.9662 64.6213 15.7572 65.0573 15.4632C65.4966 15.1648 65.6856 14.797 65.6241 14.3599C65.5953 14.1549 65.4998 13.9947 65.3377 13.8794C65.1794 13.7636 64.9494 13.7269 64.6477 13.7693ZM71.0935 12.0173C71.3604 11.9798 71.5963 11.9742 71.8012 12.0007L71.7147 12.9004C71.5026 12.8789 71.296 12.8823 71.0948 12.9106C70.7428 12.9601 70.4284 13.1226 70.1515 13.3982C69.8786 13.6732 69.6551 14.034 69.4812 14.4805C69.3106 14.9226 69.2065 15.4027 69.1688 15.9208L68.9573 18.9208L67.9826 19.0578L68.4465 12.5076L69.2531 12.3943L69.291 13.5901L69.349 13.582C69.5759 13.1753 69.769 12.8799 69.9286 12.6958C70.0875 12.5078 70.2597 12.3574 70.445 12.2445C70.6336 12.1273 70.8498 12.0515 71.0935 12.0173ZM75.2228 18.1586C74.511 18.2587 73.9224 18.1264 73.457 17.7618C72.9916 17.3973 72.7064 16.8417 72.6015 16.0952C72.4993 15.3679 72.5446 14.6515 72.7373 13.946C72.9334 13.236 73.2432 12.6619 73.6668 12.2237C74.0904 11.7855 74.5885 11.5261 75.161 11.4457C75.7528 11.3625 76.2159 11.4295 76.5501 11.6469C76.8839 11.8603 77.0831 12.1972 77.1478 12.6575C77.2456 13.3538 77.0015 13.9463 76.4154 14.4349C75.8287 14.9197 74.9377 15.2461 73.7424 15.4141L73.551 15.441L73.593 15.9085C73.6642 16.4152 73.8379 16.7951 74.1141 17.0482C74.3936 17.2969 74.7829 17.3862 75.2819 17.316C75.5256 17.2818 75.7702 17.2119 76.0157 17.1064C76.2651 17.0003 76.5682 16.8276 76.9251 16.5881L77.0441 17.4352C76.7044 17.6565 76.4 17.8196 76.1307 17.9245C75.862 18.0333 75.5593 18.1113 75.2228 18.1586ZM75.2196 12.2835C74.8211 12.3395 74.4715 12.5741 74.1706 12.9872C73.8735 13.3997 73.6776 13.942 73.5827 14.6141L73.6523 14.6043C74.5343 14.4804 75.1932 14.2714 75.6292 13.9774C76.0685 13.679 76.2574 13.3112 76.196 12.8741C76.1672 12.6691 76.0717 12.5089 75.9096 12.3937C75.7513 12.2778 75.5213 12.2411 75.2196 12.2835ZM18.6928 35.5508C19.4432 35.4453 20.0383 35.7365 20.4782 36.4241L20.5362 36.416C20.5177 35.8071 20.5303 35.265 20.5739 34.7894L20.7345 32.6486L21.6977 32.5132L21.0518 41.8108L20.2453 41.9241L20.2025 40.6935L20.1561 40.7C19.8333 41.2384 19.5159 41.6322 19.2038 41.8812C18.8916 42.1301 18.5538 42.2802 18.1901 42.3313C17.6525 42.4069 17.2061 42.2763 16.8511 41.9396C16.4961 41.6029 16.2713 41.0981 16.1767 40.425C16.0604 39.5972 16.0931 38.8194 16.2748 38.0917C16.4566 37.3641 16.757 36.7794 17.1762 36.3379C17.5993 35.8958 18.1048 35.6335 18.6928 35.5508ZM18.4017 41.4791C18.7653 41.428 19.1153 41.1954 19.4515 40.7813C19.7873 40.3633 20.0279 39.8581 20.1734 39.2657C20.3223 38.6688 20.3556 38.0784 20.2736 37.4943C20.2132 37.0649 20.0628 36.7527 19.8224 36.5577C19.582 36.3627 19.2626 36.2932 18.8642 36.3492C18.4735 36.4041 18.1324 36.6157 17.841 36.9841C17.5529 37.348 17.3471 37.8345 17.2237 38.4436C17.1035 39.0482 17.0883 39.6697 17.178 40.3079C17.3014 41.186 17.7093 41.5764 18.4017 41.4791ZM25.623 41.2867C24.9112 41.3867 24.3226 41.2544 23.8572 40.8899C23.3918 40.5253 23.1066 39.9698 23.0017 39.2232C22.8995 38.496 22.9447 37.7796 23.1375 37.074C23.3335 36.364 23.6434 35.7899 24.067 35.3517C24.4906 34.9135 24.9886 34.6542 25.5611 34.5737C26.153 34.4905 26.616 34.5576 26.9503 34.7749C27.284 34.9883 27.4833 35.3252 27.548 35.7855C27.6458 36.4818 27.4017 37.0743 26.8155 37.563C26.2289 38.0478 25.3379 38.3742 24.1426 38.5422L23.9511 38.5691L23.9931 39.0365C24.0644 39.5433 24.2381 39.9232 24.5143 40.1763C24.7938 40.4249 25.183 40.5142 25.682 40.4441C25.9257 40.4098 26.1703 40.34 26.4159 40.2344C26.6653 40.1284 26.9684 39.9556 27.3252 39.7161L27.4443 40.5633C27.1046 40.7846 26.8001 40.9477 26.5308 41.0526C26.2621 41.1613 25.9595 41.2394 25.623 41.2867ZM25.6197 35.4116C25.2213 35.4676 24.8716 35.7021 24.5707 36.1152C24.2737 36.5278 24.0777 37.0701 23.9828 37.7422L24.0525 37.7324C24.9344 37.6084 25.5934 37.3994 26.0294 37.1054C26.4687 36.807 26.6576 36.4393 26.5962 36.0021C26.5674 35.7971 26.4719 35.637 26.3097 35.5217C26.1514 35.4059 25.9214 35.3692 25.6197 35.4116ZM29.9294 40.5631L28.9546 40.7001L29.4186 34.1499L30.3934 34.0129L29.9294 40.5631ZM29.463 32.4869C29.4325 32.2703 29.4697 32.0856 29.5744 31.9328C29.6787 31.7762 29.8294 31.684 30.0267 31.6562C30.3671 31.6084 30.5618 31.7586 30.6107 32.1067C30.6406 32.3194 30.6001 32.5086 30.4892 32.674C30.3822 32.839 30.2436 32.9334 30.0734 32.9573C29.9187 32.9791 29.7845 32.9506 29.6709 32.8719C29.5568 32.7893 29.4874 32.661 29.463 32.4869ZM35.8594 39.7297L36.1538 35.5938C36.1747 35.1806 36.1742 34.8967 36.1525 34.7419C36.1182 34.4982 36.0211 34.3127 35.8612 34.1853C35.7052 34.0573 35.4763 34.0145 35.1746 34.0569C34.8303 34.1053 34.5101 34.2686 34.2139 34.5469C33.9216 34.8247 33.6799 35.1959 33.4888 35.6606C33.3016 36.1248 33.1871 36.6715 33.1453 37.3006L32.9466 40.1391L31.9718 40.2761L32.4358 33.7259L33.2423 33.6125L33.2802 34.8083L33.3383 34.8002C33.6433 34.2761 33.9543 33.8931 34.2714 33.6513C34.5918 33.4051 34.9377 33.2559 35.3091 33.2037C35.8003 33.1347 36.2062 33.2157 36.5266 33.4468C36.8504 33.6735 37.0463 34.0286 37.1142 34.5121C37.1572 34.8177 37.1616 35.1721 37.1275 35.5753L36.8458 39.5911L35.8594 39.7297ZM42.0737 38.8563L42.6744 30.1213L43.6608 29.9827L43.126 37.7972L46.4043 37.3365L46.3384 38.257L42.0737 38.8563ZM50.0857 37.8487C49.3739 37.9487 48.7853 37.8164 48.3199 37.4519C47.8545 37.0873 47.5693 36.5318 47.4644 35.7852C47.3622 35.058 47.4074 34.3416 47.6002 33.636C47.7963 32.926 48.1061 32.3519 48.5297 31.9137C48.9533 31.4755 49.4513 31.2161 50.0238 31.1357C50.6157 31.0525 51.0787 31.1196 51.413 31.3369C51.7468 31.5503 51.946 31.8872 52.0107 32.3475C52.1085 33.0438 51.8644 33.6363 51.2783 34.125C50.6916 34.6098 49.8006 34.9362 48.6053 35.1042L48.4138 35.1311L48.4559 35.5985C48.5271 36.1053 48.7008 36.4852 48.977 36.7383C49.2565 36.9869 49.6458 37.0762 50.1448 37.0061C50.3885 36.9718 50.6331 36.9019 50.8786 36.7964C51.128 36.6904 51.4311 36.5176 51.788 36.2781L51.907 37.1253C51.5673 37.3466 51.2628 37.5097 50.9936 37.6146C50.7248 37.7233 50.4222 37.8014 50.0857 37.8487ZM50.0824 31.9736C49.684 32.0296 49.3343 32.2641 49.0334 32.6772C48.7364 33.0897 48.5404 33.6321 48.4455 34.3041L48.5152 34.2944C49.3971 34.1704 50.0561 33.9614 50.4921 33.6674C50.9314 33.369 51.1203 33.0012 51.0589 32.5641C51.0301 32.3591 50.9346 32.199 50.7724 32.0837C50.6142 31.9679 50.3842 31.9312 50.0824 31.9736ZM56.5283 30.2215C56.7952 30.184 57.0311 30.1785 57.236 30.2049L57.1494 31.1046C56.9373 31.0832 56.7307 31.0866 56.5296 31.1148C56.1776 31.1643 55.8631 31.3268 55.5863 31.6024C55.3133 31.8775 55.0899 32.2382 54.916 32.6848C54.7454 33.1269 54.6412 33.607 54.6036 34.1251L54.3921 37.1251L53.4173 37.2621L53.8813 30.7119L54.6878 30.5985L54.7257 31.7944L54.7838 31.7862C55.0106 31.3796 55.2038 31.0842 55.3633 30.9C55.5223 30.712 55.6944 30.5616 55.8798 30.4488C56.0684 30.3315 56.2846 30.2558 56.5283 30.2215ZM62.0164 36.0536L62.3108 31.9177C62.3317 31.5045 62.3312 31.2205 62.3095 31.0658C62.2752 30.8221 62.1781 30.6365 62.0182 30.5091C61.8622 30.3812 61.6333 30.3384 61.3316 30.3808C60.9873 30.4292 60.6671 30.5925 60.3709 30.8708C60.0786 31.1486 59.8369 31.5198 59.6458 31.9845C59.4586 32.4487 59.3441 32.9953 59.3023 33.6245L59.1036 36.4629L58.1288 36.5999L58.5928 30.0497L59.3993 29.9364L59.4372 31.1322L59.4953 31.1241C59.8003 30.5999 60.1113 30.217 60.4284 29.9752C60.7489 29.729 61.0947 29.5798 61.4661 29.5276C61.9573 29.4585 62.3632 29.5396 62.6836 29.7707C63.0074 29.9973 63.2033 30.3524 63.2712 30.836C63.3142 31.1416 63.3186 31.496 63.2845 31.8991L63.0028 35.9149L62.0164 36.0536ZM67.5159 35.399C66.8042 35.499 66.2156 35.3668 65.7502 35.0022C65.2847 34.6377 64.9996 34.0821 64.8946 33.3355C64.7924 32.6083 64.8377 31.8919 65.0305 31.1863C65.2265 30.4764 65.5364 29.9023 65.96 29.464C66.3836 29.0258 66.8816 28.7665 67.4541 28.686C68.046 28.6028 68.509 28.6699 68.8433 28.8872C69.177 29.1007 69.3762 29.4375 69.4409 29.8979C69.5388 30.5942 69.2946 31.1866 68.7085 31.6753C68.1218 32.1601 67.2309 32.4865 66.0356 32.6545L65.8441 32.6814L65.8861 33.1488C65.9573 33.6556 66.1311 34.0355 66.4072 34.2886C66.6868 34.5373 67.076 34.6265 67.575 34.5564C67.8187 34.5222 68.0633 34.4523 68.3088 34.3468C68.5582 34.2407 68.8614 34.0679 69.2182 33.8284L69.3373 34.6756C68.9976 34.8969 68.6931 35.06 68.4238 35.1649C68.1551 35.2737 67.8525 35.3517 67.5159 35.399ZM67.5127 29.5239C67.1143 29.5799 66.7646 29.8145 66.4637 30.2275C66.1667 30.6401 65.9707 31.1824 65.8758 31.8545L65.9454 31.8447C66.8274 31.7207 67.4864 31.5118 67.9223 31.2178C68.3617 30.9193 68.5506 30.5516 68.4892 30.1145C68.4603 29.9095 68.3649 29.7493 68.2027 29.634C68.0444 29.5182 67.8144 29.4815 67.5127 29.5239ZM74.7352 34.2661L75.0296 30.1301C75.0504 29.717 75.05 29.433 75.0282 29.2783C74.994 29.0346 74.8969 28.849 74.737 28.7216C74.5809 28.5937 74.352 28.5509 74.0503 28.5933C73.706 28.6417 73.3858 28.805 73.0896 29.0833C72.7973 29.3611 72.5556 29.7323 72.3645 30.197C72.1773 30.6612 72.0628 31.2078 72.0211 31.837L71.8224 34.6754L70.8476 34.8124L71.3116 28.2622L72.1181 28.1489L72.156 29.3447L72.214 29.3365C72.519 28.8124 72.8301 28.4295 73.1472 28.1877C73.4676 27.9415 73.8135 27.7923 74.1848 27.7401C74.6761 27.671 75.082 27.7521 75.4024 27.9832C75.7262 28.2098 75.922 28.5649 75.99 29.0485C76.0329 29.3541 76.0374 29.7084 76.0033 30.1116L75.7216 34.1274L74.7352 34.2661ZM79.3917 24.961L78.6654 31.3292L78.033 31.4181C78.0556 30.2039 78.1082 28.1078 78.1906 25.1298L79.3917 24.961ZM77.5495 33.409C77.5082 33.115 77.551 32.8723 77.678 32.6809C77.8088 32.489 78.0057 32.3745 78.2687 32.3376C78.4428 32.3131 78.5916 32.3474 78.7151 32.4405C78.8381 32.5297 78.9143 32.6788 78.9436 32.8876C78.9806 33.1507 78.9364 33.3837 78.8111 33.5867C78.6858 33.7897 78.4955 33.9092 78.2402 33.9451C78.0507 33.9717 77.8941 33.9385 77.7706 33.8454C77.6509 33.7517 77.5772 33.6063 77.5495 33.409Z" fill="#003264"/>
<path d="M86.0412 20.1609C110.687 26.9979 106.406 63.8459 106.406 63.8459" stroke="#003264" stroke-width="1.5" stroke-linecap="round"/>
<path d="M97.4661 55.1703L106.071 65.3196L116.513 54.0862" stroke="#003264" stroke-width="1.5" stroke-linecap="round" stroke-linejoin="round"/>
</svg>
