<svg xmlns="http://www.w3.org/2000/svg" width="91" height="63" viewBox="0 0 91 63"><defs><style>.a{fill:#fff;stroke:#707070;}.b{fill:#ddd;}.c{stroke:none;}.d{fill:none;}</style></defs><g transform="translate(-211 -188)"><g class="a" transform="translate(211 188)"><rect class="c" width="91" height="11" rx="5.5"/><rect class="d" x="0.5" y="0.5" width="90" height="10" rx="5"/></g><rect class="b" width="91" height="11" rx="5.5" transform="translate(211 188)"/><rect class="b" width="91" height="11" rx="5.5" transform="translate(211 240)"/><rect class="b" width="5" height="19" transform="translate(254 210)"/><path class="b" d="M7.773.77a1,1,0,0,1,1.454,0l6.18,6.544A1,1,0,0,1,14.68,9H2.32a1,1,0,0,1-.727-1.687Z" transform="translate(248 202)"/><path class="b" d="M7.773.77a1,1,0,0,1,1.454,0l6.18,6.544A1,1,0,0,1,14.68,9H2.32a1,1,0,0,1-.727-1.687Z" transform="translate(265 236) rotate(180)"/></g></svg>