<svg id="_logo_L" data-name="[logo] L" xmlns="http://www.w3.org/2000/svg" width="120" height="19.509" viewBox="0 0 120 19.509">
  <g id="Gruppe_6301" data-name="Gruppe 6301" transform="translate(24.615 3.041)">
    <g id="Logo_Claim" data-name="Logo + Claim">
      <g id="Wortmarke_Claim" data-name="Wortmarke + Claim">
        <g id="Wortmarke">
          <path id="Pfad_3352" data-name="Pfad 3352" d="M144.989,25.138c0,.867-.029,1.763-.087,2.63s-.116,1.763-.2,2.63l-4.769.231c.145-1.069.262-2.138.378-3.208a29.77,29.77,0,0,0,.174-3.237v-.347c0-.173-.029-.376-.029-.578-.029-.2-.029-.433-.058-.665a4.124,4.124,0,0,0-.116-.636,2.625,2.625,0,0,0-.174-.462.273.273,0,0,0-.233-.173.73.73,0,0,0-.523.231,1.759,1.759,0,0,0-.262.578,5.753,5.753,0,0,0-.116.694c0,.231-.029.433-.029.578a7,7,0,0,0,.029.78c0,.26.029.52.029.78,0,.954-.029,1.907-.058,2.861l-.174,2.861-4.391.173c.145-1.069.262-2.138.378-3.208a29.639,29.639,0,0,0,.174-3.208v-.376c0-.173-.029-.376-.029-.607-.029-.231-.029-.462-.058-.694a4.516,4.516,0,0,0-.116-.665,3.085,3.085,0,0,0-.174-.491.31.31,0,0,0-.262-.2.47.47,0,0,0-.378.173,1.2,1.2,0,0,0-.262.462,4.081,4.081,0,0,0-.145.636c-.029.231-.058.462-.087.665a4.662,4.662,0,0,0-.029.607v.433l-.2,6.733H128.5c.087-1.04.2-2.081.291-3.121q.174-1.561.262-3.121c.087-1.04.145-2.081.2-3.15.058-1.04.087-2.081.087-3.15l4.42-.173-.029,1.069c.145-.173.291-.347.465-.52a2.759,2.759,0,0,1,.553-.462,3.277,3.277,0,0,1,.611-.347,1.813,1.813,0,0,1,.669-.116,6.73,6.73,0,0,1,.814.058,2.615,2.615,0,0,1,.669.231,1.591,1.591,0,0,1,.523.462,2.428,2.428,0,0,1,.378.722l.611-.607a3.712,3.712,0,0,1,1.367-.78,2.772,2.772,0,0,1,.872-.116,3,3,0,0,1,2.588,1.272,4.586,4.586,0,0,1,.669,1.3,9.006,9.006,0,0,1,.349,1.532,9.789,9.789,0,0,1,.145,1.589C144.989,24.213,144.989,24.7,144.989,25.138Z" transform="translate(-128.5 -18)" fill="#afd534"/>
          <path id="Pfad_3353" data-name="Pfad 3353" d="M200.873,24a10.1,10.1,0,0,1-.116,1.618c-1.047.058-2.123.173-3.17.318s-2.094.289-3.141.462a2.4,2.4,0,0,0,.756,1.069,2,2,0,0,0,1.221.4,2.85,2.85,0,0,0,.814-.144,5.478,5.478,0,0,0,.872-.347,7.85,7.85,0,0,0,.843-.462q.393-.26.7-.433l-.436,4.19a3.5,3.5,0,0,1-.785.462c-.291.116-.582.231-.872.318a4.816,4.816,0,0,1-.931.173c-.32.029-.611.058-.9.058a5.288,5.288,0,0,1-1.687-.26,5.519,5.519,0,0,1-1.367-.694,4.708,4.708,0,0,1-1.076-1.069,6.686,6.686,0,0,1-.785-1.329,8.534,8.534,0,0,1-.465-1.532,7.617,7.617,0,0,1-.145-1.618,10.935,10.935,0,0,1,.145-1.705,9.815,9.815,0,0,1,.465-1.647,7.307,7.307,0,0,1,.814-1.474,5.5,5.5,0,0,1,1.134-1.185,4.548,4.548,0,0,1,1.483-.78,5.242,5.242,0,0,1,1.8-.289,5.024,5.024,0,0,1,1.512.231,3.508,3.508,0,0,1,1.221.636,4.16,4.16,0,0,1,.931.954,4.856,4.856,0,0,1,.64,1.214,6.951,6.951,0,0,1,.378,1.387A8.438,8.438,0,0,1,200.873,24Zm-3.722-.462a3.165,3.165,0,0,0-.058-.52,1.417,1.417,0,0,0-.174-.491,1.992,1.992,0,0,0-.32-.376,1.009,1.009,0,0,0-.523-.144,1.078,1.078,0,0,0-.669.2,1.99,1.99,0,0,0-.494.491,2.411,2.411,0,0,0-.349.665c-.087.231-.145.462-.2.636l2.763-.26v-.2Z" transform="translate(-172.257 -18.071)" fill="#afd534"/>
          <path id="Pfad_3354" data-name="Pfad 3354" d="M247.389,25.138c0,.867-.029,1.763-.087,2.63s-.116,1.763-.2,2.63l-4.769.231c.145-1.069.262-2.138.378-3.208a29.774,29.774,0,0,0,.174-3.237v-.347c0-.173-.029-.376-.029-.578-.029-.2-.029-.433-.058-.665a4.124,4.124,0,0,0-.116-.636,2.625,2.625,0,0,0-.174-.462.273.273,0,0,0-.233-.173.73.73,0,0,0-.523.231,1.759,1.759,0,0,0-.262.578,5.75,5.75,0,0,0-.116.694c0,.231-.029.433-.029.578a7,7,0,0,0,.029.78c0,.26.029.52.029.78,0,.954-.029,1.907-.058,2.861l-.174,2.861-4.391.173c.145-1.069.262-2.138.378-3.208a29.636,29.636,0,0,0,.174-3.208v-.376c0-.173-.029-.376-.029-.607-.029-.231-.029-.462-.058-.694a4.516,4.516,0,0,0-.116-.665,3.083,3.083,0,0,0-.174-.491.31.31,0,0,0-.262-.2.47.47,0,0,0-.378.173,1.2,1.2,0,0,0-.262.462,4.081,4.081,0,0,0-.145.636c-.029.231-.058.462-.087.665a4.662,4.662,0,0,0-.029.607v.433l-.2,6.733H230.9c.087-1.04.2-2.081.291-3.121q.174-1.561.262-3.121c.087-1.04.145-2.081.2-3.15.058-1.04.087-2.081.087-3.15l4.42-.173-.029,1.069c.145-.173.291-.347.465-.52a2.758,2.758,0,0,1,.553-.462,3.277,3.277,0,0,1,.611-.347,1.813,1.813,0,0,1,.669-.116,6.73,6.73,0,0,1,.814.058,2.615,2.615,0,0,1,.669.231,1.59,1.59,0,0,1,.523.462,2.428,2.428,0,0,1,.378.722l.611-.607a3.712,3.712,0,0,1,1.367-.78,2.772,2.772,0,0,1,.872-.116,3,3,0,0,1,2.588,1.272,4.586,4.586,0,0,1,.669,1.3,9.009,9.009,0,0,1,.349,1.532,9.789,9.789,0,0,1,.145,1.589A12.327,12.327,0,0,0,247.389,25.138Z" transform="translate(-201.121 -18)" fill="#afd534"/>
          <path id="Pfad_3355" data-name="Pfad 3355" d="M304.283,19.3c-.291,2.167-.523,4.335-.727,6.473s-.378,4.306-.582,6.473l-3.81.289.174-1.416a1.855,1.855,0,0,1-.436.376,2.207,2.207,0,0,1-.523.26,3.42,3.42,0,0,1-.582.144,3.922,3.922,0,0,1-.582.029,3.31,3.31,0,0,1-2.21-.867,5.167,5.167,0,0,1-.843-.925,6,6,0,0,1-.64-1.1,5.627,5.627,0,0,1-.378-1.185A5.466,5.466,0,0,1,293,26.7c0-.549,0-1.127.029-1.734s.058-1.185.116-1.792a17.161,17.161,0,0,1,.233-1.763c.116-.578.2-1.156.349-1.676.756.029,1.512.058,2.268.116.756.029,1.512.029,2.268.029-.145.549-.291,1.069-.436,1.618s-.262,1.069-.378,1.618a16.161,16.161,0,0,0-.262,1.647,15.685,15.685,0,0,0-.116,1.676,4.288,4.288,0,0,0,.029.549,6.125,6.125,0,0,0,.087.722,2.944,2.944,0,0,0,.233.607.525.525,0,0,0,.465.26.871.871,0,0,0,.64-.289,2.99,2.99,0,0,0,.494-.809,8.185,8.185,0,0,0,.378-1.185c.116-.433.174-.9.262-1.387l.174-1.474c.029-.491.087-.954.087-1.387.029-.433.029-.809.058-1.156V19.733c0-.116-.029-.231-.029-.347.407,0,.814.029,1.192.029h2.123A7.841,7.841,0,0,1,304.283,19.3Z" transform="translate(-245.162 -18.924)" fill="#afd534"/>
          <path id="Pfad_3356" data-name="Pfad 3356" d="M344.29,19.491l-.349,3.9a3.4,3.4,0,0,0-.523-.116,3.18,3.18,0,0,0-.523-.029,4.358,4.358,0,0,0-1.25.173,2.96,2.96,0,0,0-1.047.52,2.333,2.333,0,0,0-.727.867,2.708,2.708,0,0,0-.262,1.243,2.755,2.755,0,0,0,.145.9,2.058,2.058,0,0,0,.436.636,1.612,1.612,0,0,0,.7.376,2.962,2.962,0,0,0,.9.116,5.682,5.682,0,0,0,.7-.058,6.823,6.823,0,0,0,.727-.2,7.128,7.128,0,0,0,.7-.289,3.059,3.059,0,0,0,.611-.347l-.145,4.335a4.921,4.921,0,0,1-.785.318c-.291.087-.553.173-.872.26l-.872.173c-.291.029-.582.058-.843.058a6,6,0,0,1-2.414-.491,5.747,5.747,0,0,1-1.861-1.329,5.418,5.418,0,0,1-1.192-1.965,6.47,6.47,0,0,1-.436-2.37,8.9,8.9,0,0,1,.436-2.832,6.75,6.75,0,0,1,1.28-2.283,5.549,5.549,0,0,1,2.094-1.5A6.774,6.774,0,0,1,341.76,19a6.678,6.678,0,0,1,1.309.116A3.739,3.739,0,0,1,344.29,19.491Z" transform="translate(-275.019 -18.711)" fill="#afd534"/>
          <path id="Pfad_3357" data-name="Pfad 3357" d="M384.109,31.815l-4.653.231-.029-3.9h-2.152l-.116,4.046H373l.349-12.975,4.42.2-.291,6.618h2.065l.029-6.936,4.246.116Z" transform="translate(-301.898 -18.782)" fill="#afd534"/>
          <path id="Pfad_3358" data-name="Pfad 3358" d="M427.707,25.466a6.025,6.025,0,0,1-.2,1.618,6.416,6.416,0,0,1-.553,1.474,5.442,5.442,0,0,1-.9,1.243,6.524,6.524,0,0,1-1.192.983,5.777,5.777,0,0,1-1.425.636,5.99,5.99,0,0,1-1.629.231,5.921,5.921,0,0,1-1.6-.2,6.216,6.216,0,0,1-1.425-.607,5.268,5.268,0,0,1-1.192-.925,4.723,4.723,0,0,1-.9-1.214,6.054,6.054,0,0,1-.582-1.416,5.673,5.673,0,0,1-.2-1.589,5.47,5.47,0,0,1,.2-1.561,5.737,5.737,0,0,1,.553-1.445,5.443,5.443,0,0,1,.9-1.243,5.372,5.372,0,0,1,1.163-.983,5.069,5.069,0,0,1,1.4-.636,5.623,5.623,0,0,1,1.6-.231,7.51,7.51,0,0,1,2.472.4,5.513,5.513,0,0,1,1.89,1.185,5.27,5.27,0,0,1,1.221,1.878A6.683,6.683,0,0,1,427.707,25.466Zm-4.129.231a2.306,2.306,0,0,0-.465-1.445,1.436,1.436,0,0,0-.553-.462,1.618,1.618,0,0,0-.756-.173,2.233,2.233,0,0,0-.785.144,1.8,1.8,0,0,0-.582.433,1.764,1.764,0,0,0-.378.636,2.2,2.2,0,0,0-.116.78,2.42,2.42,0,0,0,.116.78,1.953,1.953,0,0,0,.349.694,1.9,1.9,0,0,0,.553.52,1.634,1.634,0,0,0,.756.2,1.741,1.741,0,0,0,.785-.173,1.529,1.529,0,0,0,.582-.462,1.886,1.886,0,0,0,.378-.665A2.72,2.72,0,0,0,423.577,25.7Z" transform="translate(-332.322 -19.138)" fill="#afd534"/>
        </g>
      </g>
    </g>
  </g>
  <g id="memo">
    <g id="memo-2" data-name="memo">
      <path id="Pfad_3344" data-name="Pfad 3344" d="M44.174,34.924A6.558,6.558,0,0,0,37.582,28.4H37.42a6.581,6.581,0,0,0-6.62,6.524,35.508,35.508,0,0,0,6.809.967,31.318,31.318,0,0,0,6.566-.967" transform="translate(-28.188 -26.343)" fill="#afd534"/>
      <path id="Pfad_3345" data-name="Pfad 3345" d="M47.1,34.643a2.486,2.486,0,1,1,2.486,2.443A2.432,2.432,0,0,1,47.1,34.643" transform="translate(-40.084 -29.123)" fill="#fff"/>
      <path id="Pfad_3346" data-name="Pfad 3346" d="M53.394,37.862A1.271,1.271,0,0,0,52.1,36.6h-.135a.9.9,0,0,1,.135.456.767.767,0,0,1-1.27.591.739.739,0,0,0-.027.242,1.293,1.293,0,0,0,1.3,1.289,1.316,1.316,0,0,0,1.3-1.316" transform="translate(-42.784 -32.341)" fill="#afd534"/>
      <path id="Pfad_3347" data-name="Pfad 3347" d="M39.739,59.78a.952.952,0,0,0-.757-.725l-.757-4.4V53.9c-1.351.3-4.809,1.665-7.619,1.665-2.837,0-6.538-1.369-7.943-1.665v.725l-.757,4.35a1.05,1.05,0,0,0-.757.805,1.044,1.044,0,0,0,2.053.376,1,1,0,0,0-.432-1.02l.351-1.933a7.649,7.649,0,0,0,14.644.027l.351,1.906a1.026,1.026,0,0,0,.784,1.853,1.037,1.037,0,0,0,.838-1.208" transform="translate(-21.132 -44.997)" fill="#afd534"/>
      <path id="Pfad_3348" data-name="Pfad 3348" d="M46.5,87.1a2.641,2.641,0,0,0,2.459,1.691A2.614,2.614,0,0,0,51.417,87.1a7.493,7.493,0,0,1-2.459.4,8.271,8.271,0,0,1-2.459-.4" transform="translate(-39.646 -69.283)" fill="#afd534"/>
      <path id="Pfad_3349" data-name="Pfad 3349" d="M32.166,24.913l-1.891-2.175a.9.9,0,0,0,.081-1.181.948.948,0,0,0-1.3-.215.93.93,0,0,0-.216,1.289.9.9,0,0,0,1.162.3l1.54,2.416Z" transform="translate(-26.636 -21.057)" fill="#afd534"/>
      <path id="Pfad_3350" data-name="Pfad 3350" d="M72.053,20.917a.943.943,0,0,0-1.3.188c-.216.3,0,1.1.054,1.155L69,24.273l.621.456,1.486-2.255a.913.913,0,0,0,.946-1.557" transform="translate(-56.067 -20.739)" fill="#afd534"/>
    </g>
  </g>
</svg>
